<svg width="147" height="32" viewBox="0 0 147 32" fill="none" xmlns="http://www.w3.org/2000/svg">
<rect opacity="0.3" width="147" height="32" rx="8" fill="#D9D8DD"/>
<path d="M17.3262 14.0635C16.8691 14.0635 16.333 14.1514 15.7266 14.3271L15.8848 11.5498H20.6221V9.64258H13.9336L13.5645 16.1201L14.6982 16.5156C15.2256 16.085 15.9023 15.8652 16.7109 15.8652C17.0098 15.8652 17.2998 15.918 17.5811 16.0146C17.8623 16.1113 18.126 16.2432 18.3545 16.4189C18.583 16.5947 18.7588 16.8145 18.8994 17.0957C19.04 17.377 19.1104 17.6758 19.1104 18.0098C19.1104 18.6514 18.8906 19.1787 18.4512 19.5918C18.0117 20.0137 17.4229 20.2158 16.6846 20.2158C16.1396 20.2158 15.6562 20.1016 15.2256 19.873C14.7861 19.6445 14.4346 19.3369 14.1621 18.9326L12.6504 20.1455C13.125 20.7959 13.7314 21.2881 14.4697 21.6309C15.208 21.9824 15.999 22.1494 16.8604 22.1494C17.7217 22.1494 18.4775 21.9824 19.1455 21.6309C19.8135 21.2881 20.3232 20.8047 20.6836 20.1807C21.0439 19.5654 21.2285 18.8535 21.2285 18.0449C21.2285 17.4473 21.123 16.8936 20.9209 16.3838C20.71 15.874 20.4287 15.4521 20.0771 15.1182C19.7256 14.7842 19.3125 14.5293 18.8379 14.3447C18.3633 14.1602 17.8535 14.0635 17.3262 14.0635ZM24.4717 22.1406C24.8408 22.1406 25.1572 22.0176 25.4209 21.7539C25.6846 21.4902 25.8252 21.1738 25.8252 20.8047C25.8252 20.4355 25.6846 20.1191 25.4209 19.8555C25.1572 19.5918 24.8408 19.46 24.4717 19.46C24.2168 19.46 23.9883 19.5215 23.7773 19.6445C23.5664 19.7676 23.3994 19.9258 23.2764 20.1367C23.1533 20.3477 23.1006 20.5674 23.1006 20.8047C23.1006 21.1738 23.2324 21.4902 23.4961 21.7539C23.7598 22.0176 24.085 22.1406 24.4717 22.1406ZM32.3115 22.1406C33.2871 22.1406 34.1396 21.877 34.8604 21.3408C35.5811 20.8135 36.1348 20.0664 36.5039 19.1172C36.873 18.168 37.0664 17.0693 37.0664 15.8213C37.0664 14.8369 36.9434 13.9404 36.7148 13.1406C36.4775 12.3496 36.1523 11.6816 35.7305 11.1543C35.3086 10.627 34.8076 10.2139 34.2275 9.93262C33.6475 9.65137 33.0059 9.50195 32.3115 9.50195C31.3359 9.50195 30.4922 9.77441 29.7715 10.3018C29.0508 10.8379 28.4971 11.585 28.1279 12.5342C27.75 13.4834 27.5654 14.582 27.5654 15.8213C27.5654 16.8057 27.6797 17.7021 27.917 18.502C28.1455 19.3018 28.4707 19.9697 28.8926 20.4971C29.3145 21.0244 29.8154 21.4375 30.3955 21.7188C30.9756 22 31.6084 22.1406 32.3115 22.1406ZM32.3203 20.207C31.5117 20.207 30.8701 19.8203 30.3955 19.0381C29.9209 18.2559 29.6836 17.1836 29.6836 15.8213C29.6836 14.4502 29.9121 13.3691 30.3867 12.5957C30.8525 11.8223 31.4941 11.4355 32.3203 11.4355C33.1289 11.4355 33.7617 11.8223 34.2363 12.5957C34.7109 13.3691 34.9482 14.4502 34.9482 15.8213C34.9482 17.2012 34.7109 18.2734 34.2539 19.0469C33.7881 19.8203 33.1465 20.207 32.3203 20.207Z" fill="#665F82"/>
<path d="M55 20.1735L50.298 22.8055L51.348 17.5202L47.3914 13.8615L52.7427 13.2268L55 8.3335L57.2574 13.2268L62.6087 13.8615L58.652 17.5202L59.702 22.8055L55 20.1735Z" fill="#F9BB1B"/>
<path d="M91 20.1735L86.298 22.8055L87.348 17.5202L83.3914 13.8615L88.7427 13.2268L91 8.3335L93.2574 13.2268L98.6087 13.8615L94.652 17.5202L95.702 22.8055L91 20.1735Z" fill="#F9BB1B"/>
<path d="M73 20.1735L68.298 22.8055L69.348 17.5202L65.3914 13.8615L70.7427 13.2268L73 8.3335L75.2574 13.2268L80.6087 13.8615L76.652 17.5202L77.702 22.8055L73 20.1735Z" fill="#F9BB1B"/>
<path d="M109 20.1735L104.298 22.8055L105.348 17.5202L101.391 13.8615L106.743 13.2268L109 8.3335L111.257 13.2268L116.609 13.8615L112.652 17.5202L113.702 22.8055L109 20.1735Z" fill="#F9BB1B"/>
<path d="M127 20.1735L122.298 22.8055L123.348 17.5202L119.391 13.8615L124.743 13.2268L127 8.3335L129.257 13.2268L134.609 13.8615L130.652 17.5202L131.702 22.8055L127 20.1735Z" fill="#F9BB1B"/>
</svg>
