<svg width="287" height="91" viewBox="0 0 287 91" fill="none" xmlns="http://www.w3.org/2000/svg">
<path d="M204.02 6.3396C204.02 6.3396 246.857 24.1434 244.347 58.4902" stroke="#0F0928" stroke-width="1.5" stroke-linecap="round"/>
<path d="M212.582 5.50851C212.582 5.50851 206.385 4.24056 202.903 6.27165C206.483 10.0707 208.082 13.3027 208.082 13.3027" stroke="#0F0928" stroke-width="1.5" stroke-linecap="round" stroke-linejoin="round"/>
<path d="M3.74 85.7C3.22 85.3133 2.82 84.9667 2.54 84.66C2.26 84.3533 2.11333 84.06 2.1 83.78C2.08667 83.7133 2.08 83.5933 2.08 83.42C2.08 83.0467 2.11333 82.58 2.18 82.02C2.24667 81.46 2.31333 81.0133 2.38 80.68C2.43333 80.6267 2.46 80.5467 2.46 80.44C2.47333 80.3333 2.47333 80.2667 2.46 80.24C2.46 80.2 2.49333 80.0667 2.56 79.84C2.72 79.3467 2.83333 78.9333 2.9 78.6C3.26 77.5067 3.61333 76.6333 3.96 75.98C4.30667 75.3267 4.69333 74.7133 5.12 74.14C6.02667 73.2067 6.99333 72.5 8.02 72.02C8.54 71.7133 8.91333 71.56 9.14 71.56C9.18 71.56 9.24 71.5733 9.32 71.6C10.96 71.96 11.94 73 12.26 74.72C12.38 75.5333 12.44 76.1467 12.44 76.56C12.44 77.2267 12.32 77.9 12.08 78.58C11.84 79.26 11.4067 80.1133 10.78 81.14C10.2467 82.2067 9.64 83.12 8.96 83.88C8.29333 84.6267 7.62 85.1867 6.94 85.56C6.27333 85.9333 5.64667 86.12 5.06 86.12C4.54 86.12 4.1 85.98 3.74 85.7ZM5.34 84.38C5.66 84.34 5.90667 84.28 6.08 84.2C6.26667 84.12 6.45333 83.9867 6.64 83.8C6.84 83.6 7.16 83.2467 7.6 82.74C8.16 82.1 8.55333 81.6333 8.78 81.34C9.00667 81.0333 9.21333 80.6533 9.4 80.2C9.6 79.7467 9.82 79.0933 10.06 78.24L10.18 77.78C10.26 77.5 10.3133 77.2733 10.34 77.1C10.38 76.9133 10.4 76.7133 10.4 76.5L10.38 75.24C10.3667 75 10.32 74.74 10.24 74.46C10.16 74.18 10.0667 73.98 9.96 73.86C9.85333 73.74 9.70667 73.64 9.52 73.56C9.34667 73.4667 9.16667 73.42 8.98 73.42C8.84667 73.42 8.69333 73.4533 8.52 73.52C8.26667 73.6267 7.91333 73.9133 7.46 74.38C7.00667 74.8333 6.6 75.3 6.24 75.78C5.89333 76.26 5.72 76.58 5.72 76.74C5.72 76.7533 5.71333 76.7933 5.7 76.86C5.68667 76.9267 5.66 76.9867 5.62 77.04C5.27333 77.4133 4.92 78.2 4.56 79.4C4.21333 80.6 4.01333 81.6467 3.96 82.54C3.94667 82.9267 3.94667 83.1933 3.96 83.34C3.98667 83.4867 4.06 83.6533 4.18 83.84C4.27333 83.9867 4.44 84.1267 4.68 84.26C4.93333 84.38 5.15333 84.42 5.34 84.38ZM16.8177 84.96C16.6977 84.84 16.5977 84.6867 16.5177 84.5C16.451 84.3 16.3643 84 16.2577 83.6C16.231 83.52 16.2177 83.4067 16.2177 83.26C16.2177 83.1 16.2177 82.9867 16.2177 82.92C16.1643 83.04 16.0977 83.1733 16.0177 83.32C15.9377 83.4533 15.8577 83.5467 15.7777 83.6C15.471 83.9067 15.1643 84.1333 14.8577 84.28C14.431 84.5467 14.0643 84.68 13.7577 84.68C13.3843 84.68 13.0643 84.5067 12.7977 84.16C12.371 83.8133 12.1577 83.4 12.1577 82.92C12.1577 82.8533 12.171 82.7267 12.1977 82.54C12.2243 82.0467 12.291 81.5733 12.3977 81.12C12.5177 80.6667 12.7377 80.0867 13.0577 79.38L13.6577 78.18L13.9777 77.56C14.0443 77.5333 14.151 77.52 14.2977 77.52C14.511 77.52 14.711 77.56 14.8977 77.64C15.0843 77.72 15.1843 77.8267 15.1977 77.96C15.2377 78.0133 15.2577 78.1133 15.2577 78.26C15.2577 78.6867 15.0777 79.2533 14.7177 79.96L14.5577 80.34C14.3177 80.9133 14.1443 81.36 14.0377 81.68C13.931 82 13.8777 82.2667 13.8777 82.48C13.8777 82.6933 13.9577 82.8333 14.1177 82.9C14.1843 82.94 14.2643 82.96 14.3577 82.96C14.6243 82.96 14.9443 82.7533 15.3177 82.34C15.7043 81.9267 16.0977 81.2333 16.4977 80.26C16.6843 79.8067 16.7977 79.34 16.8377 78.86C16.811 78.7133 16.851 78.5533 16.9577 78.38C17.0643 78.2067 17.2043 78.0667 17.3777 77.96C17.431 77.88 17.5043 77.82 17.5977 77.78C17.691 77.7267 17.751 77.7267 17.7777 77.78L18.0977 77.76C18.1377 77.7467 18.1977 77.8067 18.2777 77.94C18.371 78.0733 18.4377 78.1533 18.4777 78.18C18.611 78.2867 18.6777 78.5 18.6777 78.82C18.6777 79.26 18.5177 79.8667 18.1977 80.64C17.9443 81.1733 17.771 81.5867 17.6777 81.88C17.5977 82.16 17.551 82.4333 17.5377 82.7C17.5377 82.98 17.5577 83.2 17.5977 83.36C17.651 83.5067 17.771 83.66 17.9577 83.82C18.171 83.9667 18.2577 84.3133 18.2177 84.86C18.191 84.9533 18.1177 85.0267 17.9977 85.08C17.8777 85.1333 17.731 85.16 17.5577 85.16C17.2643 85.16 17.0177 85.0933 16.8177 84.96ZM19.88 84.46C19.6933 84.3133 19.5467 84.1733 19.44 84.04C19.3333 83.9067 19.3 83.72 19.34 83.48C19.38 83.0267 19.48 82.5 19.64 81.9L19.74 81.5C19.78 81.14 19.9867 80.4333 20.36 79.38C20.7467 78.3133 21.0667 77.5933 21.32 77.22C21.4533 77.0867 21.68 77.02 22 77.02C22.2667 77.02 22.4533 77.0733 22.56 77.18C22.6667 77.26 22.72 77.3933 22.72 77.58C22.72 77.8867 22.5267 78.4267 22.14 79.2L21.94 79.62C21.8467 79.7933 21.7667 79.9533 21.7 80.1C21.6467 80.2467 21.6533 80.3133 21.72 80.3C21.8667 80.0467 22.22 79.7 22.78 79.26C23.3533 78.82 23.7467 78.5467 23.96 78.44C24.0533 78.3867 24.1733 78.3333 24.32 78.28C24.4667 78.2267 24.5667 78.1867 24.62 78.16C24.86 78.04 25.1333 77.98 25.44 77.98C25.6533 77.98 25.8333 78.0133 25.98 78.08C26.14 78.1333 26.2467 78.22 26.3 78.34C26.3133 78.4333 26.3467 78.5067 26.4 78.56C26.4667 78.6133 26.5133 78.6467 26.54 78.66C26.58 78.66 26.6067 78.68 26.62 78.72C26.6333 78.7467 26.64 78.7667 26.64 78.78C26.64 78.8867 26.5467 79.0267 26.36 79.2C26.1733 79.36 25.98 79.4467 25.78 79.46C25.6333 79.4733 25.48 79.5067 25.32 79.56C25.16 79.6133 25 79.68 24.84 79.76L24.32 80.06C23.8667 80.2867 23.48 80.5133 23.16 80.74C22.8533 80.9533 22.54 81.2333 22.22 81.58C22.1533 81.6467 22.0533 81.74 21.92 81.86C21.8 81.98 21.6933 82.12 21.6 82.28C21.5067 82.3733 21.4067 82.62 21.3 83.02C21.2067 83.4067 21.16 83.6467 21.16 83.74C21.1467 83.78 21.12 83.86 21.08 83.98C21.04 84.1 20.98 84.2067 20.9 84.3C20.78 84.4467 20.68 84.5533 20.6 84.62C20.52 84.6867 20.4333 84.72 20.34 84.72C20.2067 84.72 20.0533 84.6333 19.88 84.46ZM40.6908 84.38C40.6641 84.3933 40.5974 84.4 40.4908 84.4C40.2908 84.4 40.0974 84.3467 39.9108 84.24C39.7241 84.1333 39.6041 83.9733 39.5508 83.76C39.5374 83.72 39.4774 83.5933 39.3708 83.38C39.2774 83.1667 39.2308 82.92 39.2308 82.64C39.2308 82.52 39.2374 82.4267 39.2508 82.36L39.3508 81.74C39.3774 81.4867 39.4041 81.3333 39.4308 81.28V81.1C39.4308 80.8733 39.4108 80.76 39.3708 80.76C39.2641 80.76 38.9841 81.0067 38.5308 81.5C38.0908 81.9933 37.7108 82.48 37.3908 82.96C37.2974 83.08 37.1908 83.26 37.0708 83.5C36.9641 83.7267 36.8974 83.8467 36.8708 83.86C36.8174 83.9133 36.7374 83.94 36.6308 83.94C36.5108 83.94 36.3774 83.9 36.2308 83.82C36.0841 83.74 35.9774 83.64 35.9108 83.52C35.8841 83.4667 35.8308 83.42 35.7508 83.38C35.6708 83.3267 35.6308 83.2333 35.6308 83.1C35.6308 82.8733 35.7174 82.5 35.8908 81.98C36.0374 81.54 36.1574 81.16 36.2508 80.84C36.3574 80.52 36.4241 80.3067 36.4508 80.2C36.4508 80.1067 36.1174 80.3467 35.4508 80.92C34.7174 81.7733 34.0641 82.5867 33.4908 83.36C33.2108 83.7467 32.9908 84.0267 32.8308 84.2C32.6708 84.36 32.5308 84.44 32.4108 84.44C32.3174 84.44 32.2174 84.38 32.1108 84.26C32.0574 84.2067 31.9641 84.14 31.8308 84.06C31.7108 83.98 31.6508 83.9133 31.6508 83.86C31.6508 83.7533 31.6174 83.7 31.5508 83.7C31.4708 83.62 31.6041 83.1867 31.9508 82.4C32.3108 81.6 32.6308 80.9867 32.9108 80.56C32.9641 80.52 33.0041 80.4667 33.0308 80.4C33.0574 80.32 33.0574 80.28 33.0308 80.28C33.0574 80.24 33.0974 80.1733 33.1508 80.08C33.2041 79.9867 33.2574 79.9067 33.3108 79.84C33.5374 79.4 33.6308 79.0467 33.5908 78.78C33.5374 78.7267 33.4774 78.7067 33.4108 78.72C33.3574 78.7333 33.3241 78.7467 33.3108 78.76C33.2841 78.7733 33.2108 78.8 33.0908 78.84C32.9841 78.8667 32.8908 78.9067 32.8108 78.96C32.4908 79.1733 32.2708 79.28 32.1508 79.28C32.0041 79.28 31.8641 79.12 31.7308 78.8C31.6908 78.68 31.6708 78.5667 31.6708 78.46C31.6708 78.2867 31.7241 78.1533 31.8308 78.06C31.9374 77.9667 32.0774 77.8667 32.2508 77.76C32.4241 77.6533 32.5241 77.5867 32.5508 77.56C32.6974 77.48 32.8841 77.3933 33.1108 77.3C33.3508 77.1933 33.5308 77.12 33.6508 77.08C33.8108 77.0267 33.9708 77 34.1308 77C34.5708 77 34.8841 77.2133 35.0708 77.64C35.2574 77.8667 35.3508 78.1067 35.3508 78.36C35.3508 78.5867 35.2574 78.9 35.0708 79.3L34.8708 79.6C34.8308 79.68 34.8108 79.7333 34.8108 79.76C34.8108 79.7867 34.8174 79.8 34.8308 79.8C34.8841 79.8 34.9441 79.7533 35.0108 79.66C35.0774 79.5933 35.1641 79.5133 35.2708 79.42C35.3774 79.3133 35.4508 79.26 35.4908 79.26C35.5041 79.26 35.5241 79.2533 35.5508 79.24C35.5774 79.2133 35.5908 79.16 35.5908 79.08L35.7908 78.9C35.8308 78.9 35.9041 78.8667 36.0108 78.8C36.1174 78.72 36.2641 78.6067 36.4508 78.46C36.5974 78.3533 36.7308 78.3 36.8508 78.3C36.8908 78.2867 36.9508 78.28 37.0308 78.28C37.2841 78.28 37.4908 78.42 37.6508 78.7C37.8108 78.9667 37.8908 79.3133 37.8908 79.74L37.4708 80.82L38.1908 79.94C38.3108 79.7933 38.4708 79.6333 38.6708 79.46C38.6974 79.38 38.7308 79.3333 38.7708 79.32C38.8241 79.2933 38.8574 79.28 38.8708 79.28C38.8841 79.28 38.8974 79.2733 38.9108 79.26C38.9374 79.2467 38.9508 79.2267 38.9508 79.2C39.0041 79.16 39.0708 79.1133 39.1508 79.06C39.2441 78.9933 39.3041 78.94 39.3308 78.9C39.4508 78.8467 39.6108 78.82 39.8108 78.82C40.0241 78.82 40.2241 78.8667 40.4108 78.96C40.5974 79.04 40.7374 79.1733 40.8308 79.36C40.8708 79.4267 40.9241 79.52 40.9908 79.64C41.0708 79.7467 41.1241 79.8533 41.1508 79.96C41.1908 80.0533 41.2108 80.1733 41.2108 80.32L41.1308 80.76C41.1308 80.7467 41.0974 80.9733 41.0308 81.44C40.9641 81.5867 40.9308 81.8133 40.9308 82.12C40.9308 82.3067 40.9374 82.4267 40.9508 82.48C40.9774 82.5333 41.0308 82.56 41.1108 82.56C41.2841 82.52 41.4308 82.46 41.5508 82.38C41.6841 82.3 41.8374 82.18 42.0108 82.02C42.1174 81.9133 42.2241 81.86 42.3308 81.86C42.4508 81.86 42.5508 81.9133 42.6308 82.02C42.7241 82.1133 42.7908 82.2267 42.8308 82.36C42.8708 82.44 42.7974 82.6533 42.6108 83C42.4374 83.3467 42.3041 83.52 42.2108 83.52C42.1841 83.52 42.1108 83.5733 41.9908 83.68C41.8708 83.7733 41.7708 83.8467 41.6908 83.9C41.4641 84.1533 41.2774 84.28 41.1308 84.28C41.0774 84.28 41.0041 84.3 40.9108 84.34C40.8308 84.3667 40.7574 84.38 40.6908 84.38ZM47.0569 76.68C47.0169 76.72 46.9769 76.74 46.9369 76.74C46.8835 76.74 46.7969 76.7 46.6769 76.62C46.5435 76.6067 46.3635 76.4933 46.1369 76.28C45.9235 76.0667 45.8169 75.9267 45.8169 75.86C45.8035 75.7 45.8169 75.4733 45.8569 75.18C45.8969 74.8733 45.9702 74.6 46.0769 74.36C46.1969 74.12 46.3502 73.9933 46.5369 73.98C46.6302 73.9933 46.7569 74.0267 46.9169 74.08C47.0769 74.12 47.2569 74.18 47.4569 74.26C47.7102 74.7667 47.8369 75.2 47.8369 75.56C47.8369 76.0933 47.5769 76.4667 47.0569 76.68ZM45.2169 84.98C44.8969 84.98 44.6169 84.8133 44.3769 84.48C44.1502 84.1467 44.0102 83.7333 43.9569 83.24C44.0102 82.7467 44.0502 82.3867 44.0769 82.16C44.2235 81.5067 44.4035 80.74 44.6169 79.86C44.8435 78.9667 44.9769 78.4733 45.0169 78.38C45.0835 78.26 45.1902 78.2 45.3369 78.2C45.4835 78.2 45.6435 78.26 45.8169 78.38C46.0035 78.4867 46.1569 78.64 46.2769 78.84C46.3835 78.9867 46.4369 79.1533 46.4369 79.34C46.4369 79.62 46.3035 80.2067 46.0369 81.1C45.8502 81.7667 45.7302 82.24 45.6769 82.52C45.6235 82.8 45.6035 83.1 45.6169 83.42C45.5635 84.02 45.5102 84.4333 45.4569 84.66C45.4035 84.8867 45.3235 84.9933 45.2169 84.98ZM49.7027 85.14C48.996 85.14 48.476 84.9133 48.1427 84.46C48.0493 84.2733 48.0027 84.0733 48.0027 83.86C48.0027 83.7 48.0293 83.5667 48.0827 83.46C48.136 83.3533 48.2093 83.3 48.3027 83.3C48.3693 83.3 48.436 83.3333 48.5027 83.4C48.676 83.5067 48.9227 83.56 49.2427 83.56C49.376 83.56 49.6693 83.5467 50.1227 83.52C50.3227 83.5067 50.476 83.46 50.5827 83.38C50.7027 83.2867 50.7627 83.1867 50.7627 83.08C50.7627 82.9733 50.7227 82.8933 50.6427 82.84H50.6627C50.1027 82.7067 49.5827 82.48 49.1027 82.16C48.6227 81.8267 48.356 81.5133 48.3027 81.22C48.2627 81.0333 48.2427 80.86 48.2427 80.7C48.2427 80.34 48.316 79.98 48.4627 79.62C48.6227 79.26 48.8293 78.9333 49.0827 78.64C49.1493 78.6 49.296 78.5 49.5227 78.34C49.7627 78.1667 49.936 78.0667 50.0427 78.04V78.06C50.2827 77.8067 50.5493 77.6 50.8427 77.44C51.1493 77.2667 51.5427 77.1 52.0227 76.94L52.3427 76.9L52.7627 76.86C52.776 76.8733 52.8093 76.8933 52.8627 76.92C52.9293 76.9333 52.996 76.9467 53.0627 76.96C53.1427 77 53.2227 77.02 53.3027 77.02C53.5827 77.0733 53.8427 77.2667 54.0827 77.6C54.336 77.92 54.4493 78.22 54.4227 78.5C54.3827 78.82 54.2627 79.1267 54.0627 79.42C53.876 79.7133 53.6827 79.88 53.4827 79.92C53.5093 79.9067 53.4693 79.8733 53.3627 79.82C53.2693 79.7667 53.2093 79.7333 53.1827 79.72L53.1027 79.76C53.1027 79.7467 53.096 79.7267 53.0827 79.7C53.0827 79.66 53.0693 79.6133 53.0427 79.56C52.9493 79.3867 52.9093 79.1667 52.9227 78.9L52.9627 78.7C52.9627 78.66 52.936 78.6333 52.8827 78.62C52.8427 78.5933 52.7827 78.58 52.7027 78.58C52.6627 78.5667 52.596 78.56 52.5027 78.56C52.316 78.56 52.1093 78.6 51.8827 78.68C51.6693 78.76 51.476 78.8667 51.3027 79C50.916 79.2667 50.6627 79.46 50.5427 79.58C50.436 79.6867 50.3227 79.88 50.2027 80.16C50.0693 80.36 50.0027 80.5133 50.0027 80.62C50.0027 80.7533 50.1027 80.8867 50.3027 81.02C50.516 81.1533 50.8693 81.32 51.3627 81.52C51.6427 81.64 51.8427 81.7933 51.9627 81.98C52.0827 82.1533 52.176 82.3267 52.2427 82.5C52.3093 82.66 52.356 82.7733 52.3827 82.84C52.4093 82.92 52.436 83.0267 52.4627 83.16C52.4893 83.2933 52.496 83.3667 52.4827 83.38L52.5227 83.46V83.44C52.5627 83.52 52.5827 83.6 52.5827 83.68C52.5827 83.9467 52.4093 84.22 52.0627 84.5C51.716 84.78 51.3027 84.9667 50.8227 85.06H50.8427C50.4827 85.1133 50.1027 85.14 49.7027 85.14ZM56.7148 85.3C56.3948 85.3 56.0615 85.2333 55.7148 85.1C55.3815 84.9667 55.0948 84.8067 54.8548 84.62C54.6282 84.42 54.5148 84.24 54.5148 84.08C54.5148 83.92 54.5882 83.82 54.7348 83.78L54.8348 83.7C54.8615 83.6867 54.9148 83.68 54.9948 83.68C55.0482 83.6667 55.1148 83.6733 55.1948 83.7C55.2748 83.7133 55.3415 83.72 55.3948 83.72C55.4882 83.7467 55.6282 83.7733 55.8148 83.8L56.3348 83.86C56.6015 83.86 56.8482 83.8333 57.0748 83.78C57.3148 83.7267 57.4348 83.6667 57.4348 83.6C57.4348 83.56 57.3815 83.4933 57.2748 83.4C57.1682 83.3067 57.0548 83.26 56.9348 83.26C56.9348 83.2067 56.7282 83.0267 56.3148 82.72C56.0882 82.5467 55.8682 82.3733 55.6548 82.2C55.4548 82.0267 55.3548 81.9 55.3548 81.82L55.3748 81.78V81.68C55.2815 81.68 55.1948 81.5533 55.1148 81.3C55.0348 81.0467 54.9948 80.8 54.9948 80.56C54.9948 80.1067 55.1948 79.6067 55.5948 79.06C55.9948 78.5133 56.4882 78.02 57.0748 77.58C57.6748 77.14 58.2415 76.84 58.7748 76.68C58.9748 76.5867 59.2682 76.54 59.6548 76.54C59.9082 76.54 60.0815 76.5667 60.1748 76.62L60.3348 76.58C60.4948 76.58 60.7015 76.7133 60.9548 76.98C61.2082 77.2467 61.3682 77.46 61.4348 77.62C61.4348 78.06 61.4215 78.4133 61.3948 78.68C61.3682 78.9467 61.3015 79.08 61.1948 79.08C61.1815 79.08 61.1615 79.0867 61.1348 79.1C61.1082 79.1133 61.0948 79.1467 61.0948 79.2C61.0948 79.3867 60.9282 79.5933 60.5948 79.82C60.2748 80.0467 59.9815 80.16 59.7148 80.16L59.6348 80.14C59.5548 80.1267 59.4348 80.0467 59.2748 79.9C59.1282 79.7533 59.0548 79.6067 59.0548 79.46C59.0548 79.42 59.1348 79.3133 59.2948 79.14C59.4548 78.9667 59.5882 78.8 59.6948 78.64C59.8148 78.4667 59.8748 78.2867 59.8748 78.1C59.8748 78.0333 59.8482 77.9933 59.7948 77.98C59.7548 77.9533 59.6682 77.94 59.5348 77.94C58.8015 78.2733 58.2748 78.5867 57.9548 78.88C57.9148 78.96 57.8748 79.02 57.8348 79.06C57.8082 79.1 57.7682 79.12 57.7148 79.12C57.7148 79.1067 57.7082 79.1 57.6948 79.1C57.6682 79.1 57.5815 79.18 57.4348 79.34C57.2882 79.4867 57.1482 79.66 57.0148 79.86C56.8948 80.06 56.8215 80.2467 56.7948 80.42L56.7548 80.48V80.58C56.7415 80.6067 56.7348 80.66 56.7348 80.74C56.7348 80.86 56.7882 80.9867 56.8948 81.12C57.0015 81.24 57.2148 81.4133 57.5348 81.64C58.1348 82.0933 58.5415 82.4333 58.7548 82.66C58.9815 82.8733 59.1215 83.0667 59.1748 83.24C59.2948 83.48 59.3548 83.6933 59.3548 83.88C59.3548 84.3333 59.1148 84.6867 58.6348 84.94C58.1682 85.18 57.5282 85.3 56.7148 85.3ZM65.047 76.68C64.887 76.68 64.6937 76.6067 64.467 76.46C64.2404 76.3133 64.0404 76.1267 63.867 75.9C63.707 75.66 63.627 75.42 63.627 75.18C63.627 75.1 63.767 74.8533 64.047 74.44C64.2337 74.1867 64.327 74.0333 64.327 73.98C64.4204 73.98 64.5404 74 64.687 74.04C64.8337 74.08 64.9604 74.1267 65.067 74.18C65.147 74.3667 65.307 74.6067 65.547 74.9C65.707 75.1 65.8204 75.2667 65.887 75.4C65.967 75.5333 66.007 75.6733 66.007 75.82C66.007 76.1133 65.927 76.3333 65.767 76.48C65.6204 76.6133 65.3804 76.68 65.047 76.68ZM62.327 84.34C62.287 84.34 62.187 84.3067 62.027 84.24C61.8804 84.1733 61.7804 84.1267 61.727 84.1C61.727 84.06 61.707 83.9933 61.667 83.9C61.6404 83.7933 61.627 83.7267 61.627 83.7C61.507 83.6467 61.407 83.56 61.327 83.44C61.2604 83.3067 61.247 83.1733 61.287 83.04C61.4737 82.72 61.807 81.9867 62.287 80.84C62.7804 79.68 63.0537 79.0133 63.107 78.84C63.107 78.5467 63.2004 78.34 63.387 78.22C63.4804 78.1533 63.5737 78.12 63.667 78.12C63.8937 78.12 64.107 78.2733 64.307 78.58C64.507 78.8867 64.607 79.2467 64.607 79.66C64.607 79.82 64.4537 80.28 64.147 81.04C63.8537 81.7867 63.5204 82.54 63.147 83.3C62.9337 83.7267 62.7737 84.0067 62.667 84.14C62.5737 84.2733 62.4604 84.34 62.327 84.34ZM66.9928 84.86C66.8328 84.86 66.7061 84.8333 66.6128 84.78C66.5195 84.7267 66.3861 84.6267 66.2128 84.48C65.9461 84.2 65.7395 83.9133 65.5928 83.62C65.4461 83.3133 65.3928 83.0467 65.4328 82.82C65.4728 82.7267 65.4861 82.6333 65.4728 82.54C65.4728 82.4467 65.4728 82.3867 65.4728 82.36C65.4195 82.3067 65.3928 82.2733 65.3928 82.26C65.3928 82.2333 65.4061 82.2133 65.4328 82.2C65.4595 82.1733 65.4795 82.1467 65.4928 82.12C65.5728 82.12 65.5995 82.0467 65.5728 81.9C65.5461 81.7933 65.5928 81.56 65.7128 81.2C65.8328 80.84 65.9861 80.5067 66.1728 80.2C66.3195 79.96 66.5328 79.66 66.8128 79.3C67.1061 78.94 67.3661 78.6667 67.5928 78.48C68.2595 77.9067 68.8595 77.56 69.3928 77.44C69.6595 77.3733 69.9195 77.34 70.1728 77.34C70.5595 77.34 70.8595 77.4467 71.0728 77.66C71.3661 77.78 71.5795 77.9533 71.7128 78.18C71.8461 78.4067 71.9328 78.7067 71.9728 79.08C71.9861 79.16 71.9928 79.2933 71.9928 79.48C71.9928 80.4667 71.6195 81.4933 70.8728 82.56C70.5661 83 70.2595 83.3533 69.9528 83.62C69.6461 83.8867 69.2728 84.1533 68.8328 84.42C68.5928 84.58 68.3395 84.6867 68.0728 84.74C67.8061 84.7933 67.4461 84.8333 66.9928 84.86ZM69.0328 82.42C69.2861 82.1933 69.4661 81.9667 69.5728 81.74C69.6928 81.5 69.8595 81.0867 70.0728 80.5C70.1528 80.38 70.1928 80.14 70.1928 79.78C70.1928 79.46 70.1461 79.28 70.0528 79.24C69.9861 79.1867 69.9061 79.16 69.8128 79.16C69.6928 79.16 69.4995 79.2533 69.2328 79.44C68.7661 79.84 68.3728 80.26 68.0528 80.7C67.7461 81.1267 67.5328 81.62 67.4128 82.18C67.3995 82.2333 67.3928 82.3133 67.3928 82.42C67.3928 82.8733 67.5528 83.1 67.8728 83.1C68.1795 83.1 68.5661 82.8733 69.0328 82.42ZM80.3589 80.32C80.3589 80.5333 80.2522 81.08 80.0389 81.96C80.0122 82.08 79.9522 82.34 79.8589 82.74C79.7789 83.1267 79.7322 83.42 79.7189 83.62C79.7189 83.7667 79.7456 83.92 79.7989 84.08C79.8656 84.2267 79.8989 84.3133 79.8989 84.34C79.8989 84.4733 79.8389 84.6067 79.7189 84.74C79.5989 84.86 79.4456 84.92 79.2589 84.92C78.9256 84.92 78.6389 84.78 78.3989 84.5C78.1589 84.2067 78.0389 83.8267 78.0389 83.36C78.0389 82.96 78.1856 82.2133 78.4789 81.12C78.5056 80.9733 78.5256 80.8667 78.5389 80.8C78.5656 80.72 78.5789 80.6533 78.5789 80.6C78.5789 80.5333 78.5589 80.5 78.5189 80.5C78.4256 80.5 78.2922 80.5667 78.1189 80.7C77.9456 80.82 77.7589 80.96 77.5589 81.12L77.0589 81.54C76.8456 81.6733 76.3989 82.04 75.7189 82.64C75.6256 82.7067 75.3989 82.8933 75.0389 83.2C74.6922 83.4933 74.4922 83.64 74.4389 83.64C74.3856 83.64 74.2656 83.6 74.0789 83.52C73.9056 83.4267 73.7389 83.3133 73.5789 83.18C73.4322 83.0467 73.3589 82.8933 73.3589 82.72C73.3589 82.52 73.4789 82.06 73.7189 81.34C73.9589 80.62 74.2456 79.9133 74.5789 79.22C74.6189 79.1133 74.6656 78.9133 74.7189 78.62C74.7722 78.14 74.8589 77.84 74.9789 77.72C75.0589 77.5867 75.1722 77.52 75.3189 77.52C75.5856 77.52 75.8322 77.6533 76.0589 77.92C76.2989 78.1867 76.4189 78.48 76.4189 78.8C76.4189 79.0267 76.3522 79.3267 76.2189 79.7C76.0989 80.06 76.0122 80.2733 75.9589 80.34C75.9989 80.3133 76.0789 80.2467 76.1989 80.14C76.3322 80.02 76.5056 79.8933 76.7189 79.76C77.1722 79.4133 77.5122 79.18 77.7389 79.06C77.9656 78.9267 78.1256 78.8267 78.2189 78.76C78.2722 78.72 78.3122 78.6933 78.3389 78.68C78.3789 78.6533 78.4056 78.64 78.4189 78.64C78.4589 78.6267 78.5322 78.6 78.6389 78.56C78.7589 78.5067 78.8522 78.48 78.9189 78.48C79.1189 78.48 79.3256 78.5533 79.5389 78.7C79.7656 78.8333 79.8789 78.9733 79.8789 79.12C79.8789 79.16 79.9256 79.2333 80.0189 79.34C80.1122 79.4333 80.1922 79.5533 80.2589 79.7C80.3256 79.8333 80.3589 80.04 80.3589 80.32ZM84.7186 79.76C84.4386 79.8533 84.2319 79.9 84.0986 79.9C83.8853 79.9 83.6519 79.8133 83.3986 79.64C83.1986 79.44 83.0986 79.24 83.0986 79.04C83.0986 78.72 83.3519 78.38 83.8586 78.02C84.1253 77.8467 84.3319 77.76 84.4786 77.76C84.5853 77.76 84.7653 77.8133 85.0186 77.92C85.4186 78.1733 85.6186 78.4467 85.6186 78.74C85.6186 79.1133 85.3186 79.4533 84.7186 79.76ZM83.3186 83.96C83.0386 84.0533 82.8319 84.1 82.6986 84.1C82.4853 84.1 82.2519 84.0133 81.9986 83.84C81.7986 83.64 81.6986 83.44 81.6986 83.24C81.6986 82.92 81.9519 82.58 82.4586 82.22C82.7253 82.0467 82.9319 81.96 83.0786 81.96C83.1853 81.96 83.3653 82.0133 83.6186 82.12C84.0186 82.3733 84.2186 82.6467 84.2186 82.94C84.2186 83.3133 83.9186 83.6533 83.3186 83.96ZM89.9072 89.68C89.7739 89.68 89.6739 89.62 89.6072 89.5C89.5939 89.4867 89.5339 89.4067 89.4272 89.26C89.3205 89.1133 89.2672 88.9 89.2672 88.62C89.2672 88.5667 89.2805 88.46 89.3072 88.3C89.4539 87.74 89.5272 87.3533 89.5272 87.14C89.5272 87.0733 89.5405 86.9733 89.5672 86.84C89.5939 86.72 89.6139 86.6067 89.6272 86.5C89.6805 86.4067 89.7272 86.26 89.7672 86.06C89.8205 85.8733 89.8472 85.7067 89.8472 85.56C89.8472 85.4933 89.8672 85.4133 89.9072 85.32C89.9605 85.24 90.0205 85.1733 90.0872 85.12C90.0872 85.04 90.1072 84.92 90.1472 84.76C90.1872 84.5867 90.2139 84.4667 90.2272 84.4C90.2939 84.04 90.5539 83.1867 91.0072 81.84C91.4605 80.4933 91.8472 79.4067 92.1672 78.58C92.3272 78.2067 92.4605 77.86 92.5672 77.54C92.6739 77.22 92.7272 76.9933 92.7272 76.86C92.7272 76.8067 92.7405 76.76 92.7672 76.72C92.8072 76.6667 92.8672 76.6 92.9472 76.52C93.0539 76.4133 93.1939 76.36 93.3672 76.36C93.5939 76.36 93.8139 76.4333 94.0272 76.58C94.1205 76.7267 94.1872 76.8533 94.2272 76.96C94.2672 77.0667 94.2872 77.1867 94.2872 77.32C94.2872 77.36 94.2739 77.4867 94.2472 77.7C94.2472 77.98 94.1672 78.2333 94.0072 78.46C93.8472 78.6867 93.7739 78.7933 93.7872 78.78C94.4405 78.38 95.0472 78.18 95.6072 78.18C96.2072 78.18 96.6872 78.3933 97.0472 78.82C97.4072 79.2333 97.5872 79.7267 97.5872 80.3C97.5872 80.5267 97.4805 80.8667 97.2672 81.32C97.0539 81.76 96.8805 82.04 96.7472 82.16C96.6672 82.16 96.5605 82.3 96.4272 82.58C96.2672 82.7933 95.9605 83.02 95.5072 83.26C95.0672 83.4867 94.7672 83.5733 94.6072 83.52C94.5939 83.52 94.5739 83.54 94.5472 83.58C94.5205 83.6067 94.5072 83.6467 94.5072 83.7C94.5072 83.7533 94.3072 83.8467 93.9072 83.98C93.5072 84.1133 93.1605 84.18 92.8672 84.18C92.7072 84.18 92.5872 84.1733 92.5072 84.16C92.4272 84.1333 92.3472 84.0867 92.2672 84.02C92.1739 84.1133 92.1272 84.2 92.1272 84.28C92.1272 84.4133 92.0605 84.6267 91.9272 84.92C91.7939 85.2 91.6872 85.34 91.6072 85.34C91.5939 85.3533 91.5739 85.38 91.5472 85.42C91.5339 85.46 91.5539 85.5067 91.6072 85.56C91.6072 85.6 91.6005 85.6933 91.5872 85.84C91.5739 85.9867 91.5405 86.1 91.4872 86.18C91.4872 86.3 91.4672 86.46 91.4272 86.66C91.3872 86.8733 91.3405 87.0333 91.2872 87.14C91.2872 87.3 91.2605 87.4533 91.2072 87.6C91.1672 87.76 91.1205 87.84 91.0672 87.84C90.9872 87.8667 90.9472 88.06 90.9472 88.42C90.9339 88.74 90.8272 89.0267 90.6272 89.28C90.4405 89.5333 90.2605 89.66 90.0872 89.66L89.9072 89.68ZM92.6472 82.66C92.8339 82.66 93.1805 82.56 93.6872 82.36C94.2072 82.1467 94.5872 81.94 94.8272 81.74C95.1339 81.4867 95.3672 81.2533 95.5272 81.04C95.6872 80.8267 95.7672 80.6133 95.7672 80.4C95.7672 80.2133 95.7072 80.0333 95.5872 79.86C95.4939 79.7133 95.3539 79.64 95.1672 79.64C94.7272 79.64 94.1539 79.98 93.4472 80.66C93.2072 80.9133 92.9939 81.2333 92.8072 81.62C92.6205 81.9933 92.5272 82.28 92.5272 82.48C92.5272 82.6 92.5672 82.66 92.6472 82.66ZM102.95 84.96C102.83 84.84 102.73 84.6867 102.65 84.5C102.584 84.3 102.497 84 102.39 83.6C102.364 83.52 102.35 83.4067 102.35 83.26C102.35 83.1 102.35 82.9867 102.35 82.92C102.297 83.04 102.23 83.1733 102.15 83.32C102.07 83.4533 101.99 83.5467 101.91 83.6C101.604 83.9067 101.297 84.1333 100.99 84.28C100.564 84.5467 100.197 84.68 99.8905 84.68C99.5171 84.68 99.1971 84.5067 98.9305 84.16C98.5038 83.8133 98.2905 83.4 98.2905 82.92C98.2905 82.8533 98.3038 82.7267 98.3305 82.54C98.3571 82.0467 98.4238 81.5733 98.5305 81.12C98.6505 80.6667 98.8705 80.0867 99.1905 79.38L99.7905 78.18L100.11 77.56C100.177 77.5333 100.284 77.52 100.43 77.52C100.644 77.52 100.844 77.56 101.03 77.64C101.217 77.72 101.317 77.8267 101.33 77.96C101.37 78.0133 101.39 78.1133 101.39 78.26C101.39 78.6867 101.21 79.2533 100.85 79.96L100.69 80.34C100.45 80.9133 100.277 81.36 100.17 81.68C100.064 82 100.01 82.2667 100.01 82.48C100.01 82.6933 100.09 82.8333 100.25 82.9C100.317 82.94 100.397 82.96 100.49 82.96C100.757 82.96 101.077 82.7533 101.45 82.34C101.837 81.9267 102.23 81.2333 102.63 80.26C102.817 79.8067 102.93 79.34 102.97 78.86C102.944 78.7133 102.984 78.5533 103.09 78.38C103.197 78.2067 103.337 78.0667 103.51 77.96C103.564 77.88 103.637 77.82 103.73 77.78C103.824 77.7267 103.884 77.7267 103.91 77.78L104.23 77.76C104.27 77.7467 104.33 77.8067 104.41 77.94C104.504 78.0733 104.57 78.1533 104.61 78.18C104.744 78.2867 104.81 78.5 104.81 78.82C104.81 79.26 104.65 79.8667 104.33 80.64C104.077 81.1733 103.904 81.5867 103.81 81.88C103.73 82.16 103.684 82.4333 103.67 82.7C103.67 82.98 103.69 83.2 103.73 83.36C103.784 83.5067 103.904 83.66 104.09 83.82C104.304 83.9667 104.39 84.3133 104.35 84.86C104.324 84.9533 104.25 85.0267 104.13 85.08C104.01 85.1333 103.864 85.16 103.69 85.16C103.397 85.16 103.15 85.0933 102.95 84.96ZM108.233 85.12C107.939 85.04 107.559 84.7933 107.093 84.38C106.866 84.0867 106.733 83.8267 106.693 83.6C106.653 83.36 106.633 82.8933 106.633 82.2C106.633 81.88 106.793 81.08 107.113 79.8C107.126 79.7467 107.173 79.5667 107.253 79.26C107.293 79.1133 107.239 79.02 107.093 78.98C106.946 78.94 106.739 78.92 106.473 78.92C106.246 78.92 106.113 78.9067 106.073 78.88C106.033 78.8667 106.006 78.8067 105.993 78.7C105.993 78.5933 105.993 78.52 105.993 78.48C105.993 78.44 105.959 78.4 105.893 78.36C105.839 78.32 105.799 78.28 105.773 78.24C105.733 78.1867 105.766 78.0867 105.873 77.94C105.979 77.7933 106.099 77.7067 106.233 77.68C106.313 77.6667 106.486 77.6467 106.753 77.62C107.019 77.5933 107.273 77.54 107.513 77.46C107.766 77.38 107.953 77.2667 108.073 77.12C108.246 76.6667 108.446 76.1867 108.673 75.68C108.913 75.1733 109.079 74.8733 109.173 74.78C109.386 74.6733 109.579 74.62 109.753 74.62C110.046 74.62 110.273 74.74 110.433 74.98C110.473 75.0333 110.519 75.0867 110.573 75.14C110.626 75.1933 110.653 75.2533 110.653 75.32C110.653 75.4133 110.606 75.56 110.513 75.76C110.433 75.96 110.266 76.2867 110.013 76.74L109.753 77.24C109.793 77.2533 109.886 77.26 110.033 77.26C110.179 77.26 110.299 77.2533 110.393 77.24C110.686 77.1867 110.913 77.16 111.073 77.16C111.193 77.16 111.279 77.1667 111.333 77.18C111.893 77.18 112.199 77.4867 112.253 78.1C112.279 78.26 112.219 78.3933 112.073 78.5C111.939 78.5933 111.699 78.64 111.353 78.64C109.979 78.6933 109.286 78.7533 109.273 78.82C109.206 78.86 109.099 79.0667 108.953 79.44C108.806 79.8133 108.686 80.1667 108.593 80.5C108.433 81.1933 108.353 81.8467 108.353 82.46C108.353 83.0467 108.439 83.4267 108.613 83.6C108.666 83.6533 108.739 83.68 108.833 83.68C109.073 83.68 109.413 83.5 109.853 83.14C109.999 83.0067 110.159 82.94 110.333 82.94C110.479 82.94 110.593 82.9933 110.673 83.1C110.766 83.2067 110.813 83.3467 110.813 83.52C110.813 83.72 110.746 83.9133 110.613 84.1C110.413 84.4067 110.113 84.66 109.713 84.86C109.313 85.06 108.933 85.16 108.573 85.16C108.413 85.16 108.299 85.1467 108.233 85.12ZM118.878 84.72C118.744 84.7467 118.624 84.76 118.518 84.76C118.344 84.76 118.184 84.7467 118.038 84.72C117.891 84.68 117.818 84.6333 117.818 84.58C117.818 84.54 117.811 84.5133 117.798 84.5C117.784 84.4867 117.758 84.48 117.718 84.48C117.678 84.44 117.584 84.3733 117.438 84.28C117.304 84.1733 117.191 84.1 117.098 84.06C116.938 83.8333 116.858 83.5867 116.858 83.32C116.858 83.0667 116.938 82.66 117.098 82.1C117.111 81.58 117.298 81 117.658 80.36C118.031 79.7067 118.478 79.1067 118.998 78.56C119.518 78 119.984 77.6 120.398 77.36C120.598 77.16 120.878 77.06 121.238 77.06C121.518 77.06 121.764 77.12 121.978 77.24C122.151 77.3467 122.364 77.5733 122.618 77.92C122.884 78.2667 123.084 78.58 123.218 78.86C123.244 78.9533 123.278 79.08 123.318 79.24C123.371 79.4 123.398 79.5933 123.398 79.82L123.358 80.38C123.198 80.9267 123.118 81.42 123.118 81.86C123.091 82.0467 123.104 82.2 123.158 82.32C123.211 82.4267 123.284 82.48 123.378 82.48C123.444 82.48 123.518 82.46 123.598 82.42C123.678 82.38 123.771 82.36 123.878 82.36C124.051 82.36 124.198 82.4133 124.318 82.52C124.438 82.6267 124.498 82.76 124.498 82.92C124.498 83.0533 124.464 83.18 124.398 83.3C124.278 83.5667 124.051 83.8067 123.718 84.02C123.398 84.2333 123.098 84.34 122.818 84.34C122.591 84.34 122.371 84.22 122.158 83.98C121.958 83.74 121.798 83.4267 121.678 83.04L121.558 82.58L120.838 83.24L120.378 83.7C120.164 83.9133 120.044 84.04 120.018 84.08C119.951 84.1867 119.831 84.2867 119.658 84.38C119.498 84.4733 119.238 84.5867 118.878 84.72ZM119.418 82.8C119.658 82.6667 119.858 82.5 120.018 82.3C120.191 82.1 120.404 81.82 120.658 81.46C120.711 81.38 120.764 81.3 120.818 81.22C120.871 81.1267 120.938 81.0333 121.018 80.94C121.244 80.6333 121.404 80.3867 121.498 80.2C121.604 80.0133 121.684 79.8133 121.738 79.6C121.684 79.4267 121.604 79.2667 121.498 79.12C121.404 78.96 121.318 78.8733 121.238 78.86C120.864 78.86 120.358 79.3 119.718 80.18C119.651 80.2733 119.544 80.44 119.398 80.68C119.264 80.92 119.178 81.08 119.138 81.16C119.071 81.2533 118.978 81.48 118.858 81.84C118.751 82.1867 118.698 82.4133 118.698 82.52C118.698 82.8133 118.784 82.96 118.958 82.96C119.091 82.96 119.244 82.9067 119.418 82.8ZM132.125 85.14C131.418 85.14 130.898 84.9133 130.565 84.46C130.471 84.2733 130.425 84.0733 130.425 83.86C130.425 83.7 130.451 83.5667 130.505 83.46C130.558 83.3533 130.631 83.3 130.725 83.3C130.791 83.3 130.858 83.3333 130.925 83.4C131.098 83.5067 131.345 83.56 131.665 83.56C131.798 83.56 132.091 83.5467 132.545 83.52C132.745 83.5067 132.898 83.46 133.005 83.38C133.125 83.2867 133.185 83.1867 133.185 83.08C133.185 82.9733 133.145 82.8933 133.065 82.84H133.085C132.525 82.7067 132.005 82.48 131.525 82.16C131.045 81.8267 130.778 81.5133 130.725 81.22C130.685 81.0333 130.665 80.86 130.665 80.7C130.665 80.34 130.738 79.98 130.885 79.62C131.045 79.26 131.251 78.9333 131.505 78.64C131.571 78.6 131.718 78.5 131.945 78.34C132.185 78.1667 132.358 78.0667 132.465 78.04V78.06C132.705 77.8067 132.971 77.6 133.265 77.44C133.571 77.2667 133.965 77.1 134.445 76.94L134.765 76.9L135.185 76.86C135.198 76.8733 135.231 76.8933 135.285 76.92C135.351 76.9333 135.418 76.9467 135.485 76.96C135.565 77 135.645 77.02 135.725 77.02C136.005 77.0733 136.265 77.2667 136.505 77.6C136.758 77.92 136.871 78.22 136.845 78.5C136.805 78.82 136.685 79.1267 136.485 79.42C136.298 79.7133 136.105 79.88 135.905 79.92C135.931 79.9067 135.891 79.8733 135.785 79.82C135.691 79.7667 135.631 79.7333 135.605 79.72L135.525 79.76C135.525 79.7467 135.518 79.7267 135.505 79.7C135.505 79.66 135.491 79.6133 135.465 79.56C135.371 79.3867 135.331 79.1667 135.345 78.9L135.385 78.7C135.385 78.66 135.358 78.6333 135.305 78.62C135.265 78.5933 135.205 78.58 135.125 78.58C135.085 78.5667 135.018 78.56 134.925 78.56C134.738 78.56 134.531 78.6 134.305 78.68C134.091 78.76 133.898 78.8667 133.725 79C133.338 79.2667 133.085 79.46 132.965 79.58C132.858 79.6867 132.745 79.88 132.625 80.16C132.491 80.36 132.425 80.5133 132.425 80.62C132.425 80.7533 132.525 80.8867 132.725 81.02C132.938 81.1533 133.291 81.32 133.785 81.52C134.065 81.64 134.265 81.7933 134.385 81.98C134.505 82.1533 134.598 82.3267 134.665 82.5C134.731 82.66 134.778 82.7733 134.805 82.84C134.831 82.92 134.858 83.0267 134.885 83.16C134.911 83.2933 134.918 83.3667 134.905 83.38L134.945 83.46V83.44C134.985 83.52 135.005 83.6 135.005 83.68C135.005 83.9467 134.831 84.22 134.485 84.5C134.138 84.78 133.725 84.9667 133.245 85.06H133.265C132.905 85.1133 132.525 85.14 132.125 85.14ZM146.717 84.54C146.543 84.54 146.41 84.5133 146.317 84.46C146.21 84.42 146.07 84.3267 145.897 84.18C145.737 84.02 145.59 83.8 145.457 83.52C145.337 83.2267 145.277 82.88 145.277 82.48C145.277 82.2267 145.29 82.0067 145.317 81.82C145.357 81.62 145.377 81.4933 145.377 81.44C145.377 81.3733 145.357 81.34 145.317 81.34C144.97 81.34 144.217 81.9733 143.057 83.24C143.017 83.2667 142.983 83.3 142.957 83.34C142.797 83.46 142.65 83.5867 142.517 83.72C142.317 83.9067 142.15 84.0467 142.017 84.14C141.897 84.22 141.763 84.2667 141.617 84.28C141.523 84.28 141.423 84.24 141.317 84.16L141.097 83.98C141.03 83.94 140.97 83.8667 140.917 83.76C140.863 83.6533 140.837 83.5533 140.837 83.46V83.4V83.36L141.297 82.02C141.63 81.2867 141.797 80.8533 141.797 80.72C141.797 80.6933 141.79 80.68 141.777 80.68C141.657 80.6667 141.477 80.7733 141.237 81C141.01 81.2133 140.683 81.5533 140.257 82.02L139.357 82.96C139.25 83.0667 138.963 83.3867 138.497 83.92C138.203 84.28 138.05 84.46 138.037 84.46C137.743 84.46 137.477 84.3467 137.237 84.12C137.01 83.8933 136.897 83.62 136.897 83.3C136.897 83.14 136.923 82.9267 136.977 82.66C137.03 82.3933 137.09 82.1133 137.157 81.82C137.183 81.7133 137.21 81.5933 137.237 81.46C137.277 81.3267 137.317 81.1733 137.357 81C137.383 80.8667 137.41 80.72 137.437 80.56C137.477 80.4 137.55 80.1933 137.657 79.94C137.763 79.6733 137.917 79.3067 138.117 78.84C138.17 78.6667 138.197 78.4867 138.197 78.3C138.197 78.2067 138.19 78.12 138.177 78.04C138.163 77.9467 138.157 77.8867 138.157 77.86C138.157 77.66 138.25 77.4933 138.437 77.36C138.637 77.2133 138.857 77.14 139.097 77.14C139.443 77.14 139.703 77.2667 139.877 77.52C140.05 77.76 140.137 78.0133 140.137 78.28C140.137 78.5067 140.083 78.7267 139.977 78.94L139.757 79.48C139.703 79.6 139.603 79.82 139.457 80.14C139.323 80.4467 139.257 80.6333 139.257 80.7C139.257 80.74 139.27 80.76 139.297 80.76H139.317C139.383 80.76 139.49 80.6867 139.637 80.54C140.063 80.14 140.577 79.7267 141.177 79.3C141.79 78.86 142.23 78.6 142.497 78.52C142.603 78.52 142.743 78.5733 142.917 78.68C143.09 78.7867 143.243 78.9333 143.377 79.12C143.51 79.2933 143.577 79.4867 143.577 79.7L143.557 79.86C143.543 79.9133 143.483 80.14 143.377 80.54C143.283 80.94 143.21 81.1733 143.157 81.24C143.41 80.9467 143.85 80.5867 144.477 80.16C145.103 79.72 145.563 79.4933 145.857 79.48C146.297 79.48 146.583 79.66 146.717 80.02C146.85 80.38 146.943 80.9067 146.997 81.6C147.05 82.2533 147.123 82.6933 147.217 82.92C147.243 83 147.337 83.0667 147.497 83.12C147.657 83.1733 147.783 83.24 147.877 83.32C147.983 83.3867 148.037 83.5267 148.037 83.74C148.037 84.0333 147.903 84.24 147.637 84.36C147.383 84.48 147.077 84.54 146.717 84.54ZM151.863 76.68C151.703 76.68 151.51 76.6067 151.283 76.46C151.057 76.3133 150.857 76.1267 150.683 75.9C150.523 75.66 150.443 75.42 150.443 75.18C150.443 75.1 150.583 74.8533 150.863 74.44C151.05 74.1867 151.143 74.0333 151.143 73.98C151.237 73.98 151.357 74 151.503 74.04C151.65 74.08 151.777 74.1267 151.883 74.18C151.963 74.3667 152.123 74.6067 152.363 74.9C152.523 75.1 152.637 75.2667 152.703 75.4C152.783 75.5333 152.823 75.6733 152.823 75.82C152.823 76.1133 152.743 76.3333 152.583 76.48C152.437 76.6133 152.197 76.68 151.863 76.68ZM149.143 84.34C149.103 84.34 149.003 84.3067 148.843 84.24C148.697 84.1733 148.597 84.1267 148.543 84.1C148.543 84.06 148.523 83.9933 148.483 83.9C148.457 83.7933 148.443 83.7267 148.443 83.7C148.323 83.6467 148.223 83.56 148.143 83.44C148.077 83.3067 148.063 83.1733 148.103 83.04C148.29 82.72 148.623 81.9867 149.103 80.84C149.597 79.68 149.87 79.0133 149.923 78.84C149.923 78.5467 150.017 78.34 150.203 78.22C150.297 78.1533 150.39 78.12 150.483 78.12C150.71 78.12 150.923 78.2733 151.123 78.58C151.323 78.8867 151.423 79.2467 151.423 79.66C151.423 79.82 151.27 80.28 150.963 81.04C150.67 81.7867 150.337 82.54 149.963 83.3C149.75 83.7267 149.59 84.0067 149.483 84.14C149.39 84.2733 149.277 84.34 149.143 84.34ZM152.969 84.52C152.796 84.4267 152.636 84.3067 152.489 84.16C152.356 84 152.289 83.8533 152.289 83.72C152.289 83.5333 152.309 83.2933 152.349 83C152.403 82.7067 152.463 82.44 152.529 82.2C152.569 81.8667 152.609 81.6 152.649 81.4C152.703 81.1867 152.789 80.98 152.909 80.78C152.963 80.58 153.056 80.28 153.189 79.88C153.483 78.9467 153.683 78.2267 153.789 77.72C153.896 77.4267 153.989 77.1667 154.069 76.94C154.149 76.7133 154.223 76.5067 154.289 76.32C154.263 76.4 154.429 75.9467 154.789 74.96C154.896 74.64 154.969 74.3933 155.009 74.22C155.156 73.62 155.323 73.1667 155.509 72.86C155.603 72.7267 155.669 72.6133 155.709 72.52C155.763 72.4267 155.809 72.3533 155.849 72.3C155.863 72.2467 155.929 72.2 156.049 72.16C156.183 72.12 156.316 72.1 156.449 72.1C156.596 72.1 156.696 72.1267 156.749 72.18C156.816 72.1533 156.929 72.2667 157.089 72.52C157.263 72.76 157.343 72.9333 157.329 73.04C157.329 73.2133 157.283 73.3733 157.189 73.52C157.136 73.5733 157.076 73.6733 157.009 73.82C156.943 73.9533 156.883 74.0667 156.829 74.16C156.803 74.2533 156.756 74.4133 156.689 74.64C156.636 74.8533 156.583 75.0333 156.529 75.18C156.463 75.34 156.396 75.4933 156.329 75.64C156.276 75.7733 156.229 75.8933 156.189 76C156.136 76.1733 156.043 76.4333 155.909 76.78C155.723 77.2333 155.596 77.5867 155.529 77.84C155.503 77.92 155.456 78.0867 155.389 78.34C155.203 79.0067 155.023 79.4933 154.849 79.8C154.743 79.9733 154.663 80.2067 154.609 80.5C154.569 80.7933 154.543 80.9733 154.529 81.04C154.329 81.64 154.229 81.9933 154.229 82.1C154.203 82.22 154.156 82.4533 154.089 82.8C154.009 83.2267 153.929 83.5333 153.849 83.72C153.823 83.92 153.743 84.1133 153.609 84.3C153.489 84.4867 153.349 84.58 153.189 84.58C153.123 84.58 153.049 84.56 152.969 84.52ZM158.464 85C157.704 85 157.091 84.7867 156.624 84.36C156.157 83.9333 155.924 83.3267 155.924 82.54C155.924 82.2333 155.944 81.8933 155.984 81.52C156.011 81.2 156.137 80.76 156.364 80.2C156.604 79.64 156.924 79.0933 157.324 78.56C157.737 78.0267 158.217 77.6333 158.764 77.38C159.017 77.26 159.231 77.18 159.404 77.14C159.577 77.0867 159.777 77.06 160.004 77.06C160.551 77.06 160.991 77.16 161.324 77.36C161.671 77.56 161.911 77.7867 162.044 78.04C162.191 78.2933 162.264 78.5133 162.264 78.7V78.8V78.86C162.264 79.02 162.171 79.3133 161.984 79.74C161.797 80.1667 161.497 80.5667 161.084 80.94C160.684 81.3133 160.164 81.52 159.524 81.56C159.204 81.56 158.891 81.5333 158.584 81.48C158.291 81.4133 158.104 81.38 158.024 81.38C157.824 81.38 157.697 81.4533 157.644 81.6C157.591 81.7467 157.564 81.9933 157.564 82.34C157.604 82.7133 157.704 82.9733 157.864 83.12C158.037 83.2667 158.284 83.34 158.604 83.34C158.764 83.34 158.951 83.2933 159.164 83.2C159.377 83.0933 159.631 82.9267 159.924 82.7C160.084 82.5667 160.211 82.4733 160.304 82.42C160.397 82.3667 160.511 82.34 160.644 82.34C160.764 82.34 160.904 82.42 161.064 82.58C161.224 82.74 161.311 82.8933 161.324 83.04C161.297 83.2 161.151 83.44 160.884 83.76C160.617 84.08 160.271 84.3667 159.844 84.62C159.417 84.8733 158.957 85 158.464 85ZM159.164 80.18C159.417 80.18 159.591 80.1533 159.684 80.1C159.817 80.0333 160.017 79.8667 160.284 79.6C160.564 79.32 160.711 79.1267 160.724 79.02C160.724 78.8867 160.664 78.78 160.544 78.7C160.437 78.6067 160.284 78.5467 160.084 78.52H159.864C159.691 78.52 159.437 78.6667 159.104 78.96C158.784 79.24 158.504 79.5667 158.264 79.94C158.277 80.0067 158.377 80.0667 158.564 80.12C158.751 80.16 158.951 80.18 159.164 80.18ZM169.427 84.84C169.361 84.8533 169.274 84.86 169.167 84.86C168.994 84.86 168.854 84.8333 168.747 84.78C168.641 84.7133 168.514 84.6067 168.367 84.46C168.061 84.3133 167.794 84.0667 167.567 83.72C167.341 83.3733 167.241 83.1 167.267 82.9C167.334 82.26 167.514 81.5667 167.807 80.82C168.101 80.06 168.481 79.38 168.947 78.78C169.427 78.1667 169.934 77.74 170.467 77.5C170.707 77.4067 170.927 77.36 171.127 77.36C171.541 77.36 171.814 77.4933 171.947 77.76C172.041 77.9467 172.087 78.0867 172.087 78.18C172.087 78.34 171.994 78.4467 171.807 78.5C171.767 78.5 171.721 78.52 171.667 78.56C171.614 78.6 171.587 78.64 171.587 78.68C171.601 78.6933 171.661 78.7 171.767 78.7C171.994 78.7 172.274 78.6667 172.607 78.6C172.941 78.5333 173.154 78.46 173.247 78.38C173.327 78.34 173.394 78.32 173.447 78.32L173.727 78.36C173.954 78.4267 174.067 78.5067 174.067 78.6C174.067 78.6667 174.087 78.7533 174.127 78.86C174.181 78.9667 174.227 79.02 174.267 79.02C174.334 79.02 174.367 79.0667 174.367 79.16C174.367 79.24 174.321 79.3467 174.227 79.48C174.147 79.6 174.027 79.72 173.867 79.84C173.801 79.88 173.701 79.94 173.567 80.02C173.447 80.1 173.374 80.1667 173.347 80.22C173.334 80.2733 173.341 80.3467 173.367 80.44C173.421 80.5467 173.447 80.68 173.447 80.84C173.447 81.2933 173.227 81.8267 172.787 82.44C172.347 83.04 171.807 83.5733 171.167 84.04C170.541 84.5067 169.961 84.7733 169.427 84.84ZM169.487 83.16C169.567 83.16 169.767 83.08 170.087 82.92C170.261 82.7467 170.401 82.64 170.507 82.6C170.547 82.6 170.581 82.5667 170.607 82.5C170.647 82.42 170.707 82.3067 170.787 82.16C170.881 82 171.027 81.7933 171.227 81.54C171.441 81.3 171.587 81.1067 171.667 80.96C171.761 80.8133 171.807 80.6667 171.807 80.52C171.807 80.4667 171.794 80.3733 171.767 80.24C171.754 80.2 171.707 80.1667 171.627 80.14C171.561 80.1 171.494 80.0667 171.427 80.04C171.361 80.04 171.294 80.06 171.227 80.1C171.161 80.1267 171.114 80.14 171.087 80.14C171.021 80.14 170.947 80.1067 170.867 80.04L170.547 79.64L170.207 79.98C169.901 80.2867 169.641 80.7 169.427 81.22C169.227 81.74 169.107 82.2133 169.067 82.64C169.054 82.8267 169.081 82.96 169.147 83.04C169.227 83.1067 169.341 83.1467 169.487 83.16ZM181.013 84.4C180.813 84.4 180.613 84.3467 180.413 84.24C180.213 84.1333 180.053 83.9733 179.933 83.76L179.833 83.56C179.673 83.1067 179.593 82.6667 179.593 82.24V81.36C179.593 81.2133 179.58 81.14 179.553 81.14C179.447 81.14 178.987 81.5733 178.173 82.44C177.6 83.04 177.1 83.5067 176.673 83.84C176.26 84.16 175.973 84.32 175.813 84.32C175.76 84.32 175.633 84.2733 175.433 84.18C175.233 84.0733 175.107 83.9933 175.053 83.94C174.96 83.8467 174.9 83.7333 174.873 83.6C174.847 83.4667 174.833 83.2133 174.833 82.84C174.833 82.4133 174.92 81.9333 175.093 81.4C175.267 80.8533 175.56 80.1267 175.973 79.22C176.08 79.0333 176.187 78.8067 176.293 78.54C176.6 77.8467 176.887 77.3667 177.153 77.1C177.26 77.1 177.333 77.1067 177.373 77.12C177.547 77.1333 177.747 77.2133 177.973 77.36C178.213 77.5067 178.36 77.7 178.413 77.94C178.413 78.1667 178.38 78.3933 178.313 78.62C178.247 78.8467 178.093 79.1267 177.853 79.46C177.707 79.66 177.513 80.0933 177.273 80.76C177.207 80.8667 177.113 81.0333 176.993 81.26C176.887 81.4733 176.833 81.5933 176.833 81.62C176.847 81.6333 176.887 81.6067 176.953 81.54C177.02 81.46 177.087 81.3867 177.153 81.32L177.693 80.78C178.747 79.7267 179.56 79.1867 180.133 79.16C180.427 79.16 180.687 79.3133 180.913 79.62C181.14 79.9267 181.253 80.2933 181.253 80.72C181.253 80.8 181.24 81.0267 181.213 81.4V82.54C181.52 82.46 181.753 82.3867 181.913 82.32C182.247 82.2 182.593 82.1267 182.953 82.1C182.927 82.3267 182.8 82.6267 182.573 83C182.36 83.3733 182.107 83.7 181.813 83.98C181.52 84.26 181.253 84.4 181.013 84.4ZM187.837 89.68C187.704 89.68 187.604 89.62 187.537 89.5C187.524 89.4867 187.464 89.4067 187.357 89.26C187.25 89.1133 187.197 88.9 187.197 88.62C187.197 88.5667 187.21 88.46 187.237 88.3C187.384 87.74 187.457 87.3533 187.457 87.14C187.457 87.0733 187.47 86.9733 187.497 86.84C187.524 86.72 187.544 86.6067 187.557 86.5C187.61 86.4067 187.657 86.26 187.697 86.06C187.75 85.8733 187.777 85.7067 187.777 85.56C187.777 85.4933 187.797 85.4133 187.837 85.32C187.89 85.24 187.95 85.1733 188.017 85.12C188.017 85.04 188.037 84.92 188.077 84.76C188.117 84.5867 188.144 84.4667 188.157 84.4C188.224 84.04 188.484 83.1867 188.937 81.84C189.39 80.4933 189.777 79.4067 190.097 78.58C190.257 78.2067 190.39 77.86 190.497 77.54C190.604 77.22 190.657 76.9933 190.657 76.86C190.657 76.8067 190.67 76.76 190.697 76.72C190.737 76.6667 190.797 76.6 190.877 76.52C190.984 76.4133 191.124 76.36 191.297 76.36C191.524 76.36 191.744 76.4333 191.957 76.58C192.05 76.7267 192.117 76.8533 192.157 76.96C192.197 77.0667 192.217 77.1867 192.217 77.32C192.217 77.36 192.204 77.4867 192.177 77.7C192.177 77.98 192.097 78.2333 191.937 78.46C191.777 78.6867 191.704 78.7933 191.717 78.78C192.37 78.38 192.977 78.18 193.537 78.18C194.137 78.18 194.617 78.3933 194.977 78.82C195.337 79.2333 195.517 79.7267 195.517 80.3C195.517 80.5267 195.41 80.8667 195.197 81.32C194.984 81.76 194.81 82.04 194.677 82.16C194.597 82.16 194.49 82.3 194.357 82.58C194.197 82.7933 193.89 83.02 193.437 83.26C192.997 83.4867 192.697 83.5733 192.537 83.52C192.524 83.52 192.504 83.54 192.477 83.58C192.45 83.6067 192.437 83.6467 192.437 83.7C192.437 83.7533 192.237 83.8467 191.837 83.98C191.437 84.1133 191.09 84.18 190.797 84.18C190.637 84.18 190.517 84.1733 190.437 84.16C190.357 84.1333 190.277 84.0867 190.197 84.02C190.104 84.1133 190.057 84.2 190.057 84.28C190.057 84.4133 189.99 84.6267 189.857 84.92C189.724 85.2 189.617 85.34 189.537 85.34C189.524 85.3533 189.504 85.38 189.477 85.42C189.464 85.46 189.484 85.5067 189.537 85.56C189.537 85.6 189.53 85.6933 189.517 85.84C189.504 85.9867 189.47 86.1 189.417 86.18C189.417 86.3 189.397 86.46 189.357 86.66C189.317 86.8733 189.27 87.0333 189.217 87.14C189.217 87.3 189.19 87.4533 189.137 87.6C189.097 87.76 189.05 87.84 188.997 87.84C188.917 87.8667 188.877 88.06 188.877 88.42C188.864 88.74 188.757 89.0267 188.557 89.28C188.37 89.5333 188.19 89.66 188.017 89.66L187.837 89.68ZM190.577 82.66C190.764 82.66 191.11 82.56 191.617 82.36C192.137 82.1467 192.517 81.94 192.757 81.74C193.064 81.4867 193.297 81.2533 193.457 81.04C193.617 80.8267 193.697 80.6133 193.697 80.4C193.697 80.2133 193.637 80.0333 193.517 79.86C193.424 79.7133 193.284 79.64 193.097 79.64C192.657 79.64 192.084 79.98 191.377 80.66C191.137 80.9133 190.924 81.2333 190.737 81.62C190.55 81.9933 190.457 82.28 190.457 82.48C190.457 82.6 190.497 82.66 190.577 82.66ZM197.695 84.82C197.255 84.6467 196.929 84.38 196.715 84.02C196.515 83.6467 196.415 83.1667 196.415 82.58C196.415 82.4467 196.429 82.2067 196.455 81.86C196.469 81.7533 196.475 81.6267 196.475 81.48C196.475 81.2533 196.449 81.0867 196.395 80.98C196.342 80.86 196.249 80.74 196.115 80.62C196.075 80.58 195.982 80.4933 195.835 80.36C195.689 80.2267 195.622 80.1267 195.635 80.06V80C195.635 79.9067 195.655 79.8067 195.695 79.7C195.749 79.58 195.795 79.5067 195.835 79.48C195.875 79.4667 195.955 79.4267 196.075 79.36C196.195 79.2933 196.289 79.2733 196.355 79.3C196.409 79.3 196.489 79.3333 196.595 79.4C196.715 79.4667 196.775 79.5267 196.775 79.58C196.855 79.74 197.062 79.48 197.395 78.8C197.582 78.52 197.835 78.2467 198.155 77.98C198.475 77.7 198.769 77.4867 199.035 77.34C199.129 77.3 199.335 77.2467 199.655 77.18C199.989 77.1 200.249 77.06 200.435 77.06C200.649 77.06 200.895 77.1467 201.175 77.32C201.469 77.4933 201.709 77.68 201.895 77.88C202.175 78.08 202.315 78.46 202.315 79.02C202.315 79.3533 202.262 79.64 202.155 79.88C202.102 80.08 201.835 80.3867 201.355 80.8C200.889 81.2 200.509 81.46 200.215 81.58C199.922 81.6467 199.595 81.68 199.235 81.68C198.875 81.68 198.629 81.6467 198.495 81.58C198.402 81.5267 198.322 81.5533 198.255 81.66C198.202 81.7533 198.155 81.9733 198.115 82.32L198.095 82.52C198.095 82.6667 198.129 82.8067 198.195 82.94C198.289 83.1 198.375 83.2133 198.455 83.28C198.535 83.3467 198.655 83.38 198.815 83.38L198.995 83.36C199.142 83.3467 199.295 83.2733 199.455 83.14C199.629 83.0067 199.829 82.8267 200.055 82.6C200.295 82.3733 200.435 82.24 200.475 82.2C200.542 82.0667 200.722 82 201.015 82C201.135 82 201.289 82.02 201.475 82.06C201.609 82.1667 201.675 82.3 201.675 82.46C201.675 82.6867 201.569 82.9933 201.355 83.38C201.289 83.5133 201.082 83.74 200.735 84.06C200.402 84.38 200.135 84.6 199.935 84.72C199.575 84.92 199.175 85.02 198.735 85.02C198.402 85.02 198.055 84.9533 197.695 84.82ZM199.175 80.32C199.495 80.24 199.742 80.1467 199.915 80.04C200.102 79.92 200.315 79.6933 200.555 79.36C200.662 79.04 200.682 78.8467 200.615 78.78C200.535 78.7 200.442 78.66 200.335 78.66C200.202 78.66 200.042 78.7333 199.855 78.88C199.722 78.92 199.535 79.0467 199.295 79.26C199.069 79.46 198.875 79.66 198.715 79.86C198.555 80.0467 198.509 80.16 198.575 80.2C198.549 80.24 198.615 80.2733 198.775 80.3C198.935 80.3133 199.069 80.32 199.175 80.32ZM204.395 84.86C204.235 84.86 204.108 84.8333 204.015 84.78C203.922 84.7267 203.788 84.6267 203.615 84.48C203.348 84.2 203.142 83.9133 202.995 83.62C202.848 83.3133 202.795 83.0467 202.835 82.82C202.875 82.7267 202.888 82.6333 202.875 82.54C202.875 82.4467 202.875 82.3867 202.875 82.36C202.822 82.3067 202.795 82.2733 202.795 82.26C202.795 82.2333 202.808 82.2133 202.835 82.2C202.862 82.1733 202.882 82.1467 202.895 82.12C202.975 82.12 203.002 82.0467 202.975 81.9C202.948 81.7933 202.995 81.56 203.115 81.2C203.235 80.84 203.388 80.5067 203.575 80.2C203.722 79.96 203.935 79.66 204.215 79.3C204.508 78.94 204.768 78.6667 204.995 78.48C205.662 77.9067 206.262 77.56 206.795 77.44C207.062 77.3733 207.322 77.34 207.575 77.34C207.962 77.34 208.262 77.4467 208.475 77.66C208.768 77.78 208.982 77.9533 209.115 78.18C209.248 78.4067 209.335 78.7067 209.375 79.08C209.388 79.16 209.395 79.2933 209.395 79.48C209.395 80.4667 209.022 81.4933 208.275 82.56C207.968 83 207.662 83.3533 207.355 83.62C207.048 83.8867 206.675 84.1533 206.235 84.42C205.995 84.58 205.742 84.6867 205.475 84.74C205.208 84.7933 204.848 84.8333 204.395 84.86ZM206.435 82.42C206.688 82.1933 206.868 81.9667 206.975 81.74C207.095 81.5 207.262 81.0867 207.475 80.5C207.555 80.38 207.595 80.14 207.595 79.78C207.595 79.46 207.548 79.28 207.455 79.24C207.388 79.1867 207.308 79.16 207.215 79.16C207.095 79.16 206.902 79.2533 206.635 79.44C206.168 79.84 205.775 80.26 205.455 80.7C205.148 81.1267 204.935 81.62 204.815 82.18C204.802 82.2333 204.795 82.3133 204.795 82.42C204.795 82.8733 204.955 83.1 205.275 83.1C205.582 83.1 205.968 82.8733 206.435 82.42ZM209.941 88.72C209.715 88.72 209.501 88.6 209.301 88.36C209.115 88.12 209.021 87.8467 209.021 87.54C209.021 87.42 209.041 87.3 209.081 87.18C209.095 87.1267 209.128 87 209.181 86.8C209.248 86.6133 209.288 86.4533 209.301 86.32C209.328 86.1733 209.408 85.9067 209.541 85.52C209.675 85.1333 209.781 84.8733 209.861 84.74C209.928 84.62 209.981 84.48 210.021 84.32C210.061 84.1467 210.081 84 210.081 83.88C210.175 83.5867 210.261 83.3867 210.341 83.28C210.435 82.9867 210.535 82.76 210.641 82.6C210.655 82.56 210.668 82.4667 210.681 82.32C210.708 82.16 210.755 82.0667 210.821 82.04C210.861 81.8533 210.895 81.7267 210.921 81.66C211.015 81.2467 211.188 80.7267 211.441 80.1C211.641 79.5267 211.741 79.14 211.741 78.94C211.741 78.7267 211.668 78.5933 211.521 78.54C211.375 78.4867 211.301 78.3 211.301 77.98C211.301 77.8067 211.328 77.6467 211.381 77.5C211.435 77.3533 211.508 77.26 211.601 77.22C211.801 77.14 212.061 77.1 212.381 77.1C212.595 77.1 212.701 77.12 212.701 77.16C212.701 77.2 212.708 77.2333 212.721 77.26C212.735 77.2733 212.761 77.28 212.801 77.28C212.841 77.2267 212.941 77.3667 213.101 77.7C213.261 78.02 213.341 78.2333 213.341 78.34C213.315 78.38 213.301 78.4067 213.301 78.42C213.315 78.4333 213.341 78.44 213.381 78.44C213.475 78.4 213.648 78.3133 213.901 78.18C214.168 78.0333 214.335 77.92 214.401 77.84C214.428 77.8267 214.475 77.8067 214.541 77.78C214.608 77.74 214.661 77.7 214.701 77.66C214.848 77.6067 215.015 77.58 215.201 77.58C215.415 77.58 215.621 77.6133 215.821 77.68C216.021 77.7467 216.188 77.84 216.321 77.96C216.521 78.2133 216.688 78.5067 216.821 78.84C216.955 79.1733 217.021 79.5 217.021 79.82C217.021 80.0867 216.968 80.36 216.861 80.64C216.835 80.72 216.748 80.88 216.601 81.12C216.468 81.3467 216.375 81.5 216.321 81.58C215.788 82.4067 215.055 83.0867 214.121 83.62C213.948 83.74 213.695 83.8533 213.361 83.96C213.041 84.0533 212.808 84.1 212.661 84.1C212.581 84.1 212.495 84.0333 212.401 83.9C212.321 83.7533 212.248 83.5867 212.181 83.4C212.008 83.8133 211.908 84.0933 211.881 84.24C211.881 84.28 211.868 84.3467 211.841 84.44C211.828 84.52 211.795 84.58 211.741 84.62C211.741 84.6333 211.728 84.6667 211.701 84.72C211.688 84.7733 211.648 84.8467 211.581 84.94L211.241 85.92C211.081 86.3067 210.981 86.6133 210.941 86.84C210.901 87.3067 210.795 87.7333 210.621 88.12C210.448 88.52 210.221 88.72 209.941 88.72ZM213.081 82.2C213.281 82.1067 213.561 81.96 213.921 81.76C214.295 81.56 214.541 81.3867 214.661 81.24C214.755 81.1333 214.815 81.02 214.841 80.9C214.881 80.78 214.915 80.6733 214.941 80.58C215.075 80.2467 215.168 80 215.221 79.84C215.261 79.76 215.281 79.6667 215.281 79.56C215.281 79.4133 215.241 79.3 215.161 79.22C215.001 79.2067 214.741 79.2867 214.381 79.46C214.035 79.62 213.708 79.9 213.401 80.3C212.961 80.8733 212.741 81.36 212.741 81.76C212.741 81.8933 212.768 82 212.821 82.08C212.888 82.16 212.975 82.2 213.081 82.2ZM217.98 85.6C217.78 85.5333 217.627 85.4133 217.52 85.24C217.427 85.0667 217.38 84.8133 217.38 84.48C217.38 83.9333 217.433 83.4 217.54 82.88L217.56 82.72C217.573 82.64 217.593 82.5133 217.62 82.34C217.647 82.1533 217.667 82.1 217.68 82.18L217.8 81.64C217.893 81.2667 217.98 80.92 218.06 80.6C218.153 80.28 218.227 80.0467 218.28 79.9L218.5 79.2C218.9 77.9067 219.273 77.0333 219.62 76.58C219.633 76.5267 219.653 76.48 219.68 76.44C219.707 76.3867 219.727 76.3333 219.74 76.28C219.74 76.0667 219.78 75.9 219.86 75.78C219.98 75.58 220.08 75.4 220.16 75.24L220.24 75.02L220.8 73.88C220.84 73.7467 220.92 73.6 221.04 73.44C221.173 73.28 221.307 73.1733 221.44 73.12L221.42 73.1C221.487 72.9933 221.607 72.9 221.78 72.82C221.967 72.74 222.127 72.7 222.26 72.7C222.433 72.7 222.573 72.7533 222.68 72.86C222.787 72.9667 222.84 73.1133 222.84 73.3V73.5C222.84 73.62 222.827 73.7133 222.8 73.78C222.787 73.8467 222.747 73.9267 222.68 74.02H222.7C222.713 74.0333 222.7 74.08 222.66 74.16C222.633 74.2267 222.607 74.2933 222.58 74.36C222.487 74.6 222.42 74.7333 222.38 74.76C222.287 74.88 221.98 75.4467 221.46 76.46C220.94 77.46 220.607 78.1533 220.46 78.54L220.38 78.84L220.34 78.96C220.193 79.28 220.113 79.4533 220.1 79.48L219.78 80.72L219.7 81.14L219.52 81.6L219.4 81.98C219.373 82.0467 219.347 82.1333 219.32 82.24C219.307 82.3467 219.287 82.4133 219.26 82.44L219.24 82.54C219.227 82.5933 219.18 82.7467 219.1 83C218.98 83.3733 218.893 83.6867 218.84 83.94C218.787 84.18 218.753 84.44 218.74 84.72L218.72 84.8C218.68 85.0933 218.593 85.3133 218.46 85.46C218.34 85.6067 218.18 85.6533 217.98 85.6ZM223.415 85.36C221.895 85.36 221.135 84.4933 221.135 82.76C221.135 82.1333 221.288 81.4267 221.595 80.64C221.915 79.84 222.308 79.1267 222.775 78.5C223.255 77.86 223.728 77.4333 224.195 77.22C224.448 77.0867 224.741 77.02 225.075 77.02C225.675 77.02 226.195 77.1533 226.635 77.42C227.088 77.6733 227.315 78.16 227.315 78.88C227.315 79.2933 227.175 79.7467 226.895 80.24C226.615 80.7333 226.261 81.1533 225.835 81.5C225.421 81.8333 225.015 82 224.615 82C224.015 82 223.508 81.8067 223.095 81.42C222.868 81.8733 222.755 82.3067 222.755 82.72C222.755 83.0533 222.795 83.3133 222.875 83.5C222.955 83.6733 223.141 83.76 223.435 83.76C223.715 83.76 223.941 83.72 224.115 83.64C224.288 83.56 224.448 83.4667 224.595 83.36C224.741 83.2533 224.855 83.1733 224.935 83.12L225.015 83.08H224.995C225.235 82.9467 225.408 82.8467 225.515 82.78C225.635 82.7 225.735 82.6467 225.815 82.62C226.015 82.62 226.201 82.68 226.375 82.8C226.548 82.92 226.635 83.0667 226.635 83.24C226.635 83.3733 226.515 83.5933 226.275 83.9C226.035 84.1933 225.788 84.4 225.535 84.52L225.295 84.64H225.315C225.195 84.8 225.075 84.88 224.955 84.88H224.795C224.741 84.9867 224.561 85.0933 224.255 85.2C223.961 85.3067 223.681 85.36 223.415 85.36ZM224.455 80.54C224.828 80.54 225.135 80.38 225.375 80.06C225.628 79.74 225.755 79.42 225.755 79.1C225.755 78.9533 225.715 78.82 225.635 78.7C225.568 78.58 225.475 78.52 225.355 78.52C225.128 78.52 224.875 78.6267 224.595 78.84C224.315 79.0533 224.068 79.3333 223.855 79.68L223.595 80.1C223.648 80.0733 223.688 80.06 223.715 80.06C223.821 80.06 223.901 80.1067 223.955 80.2C224.008 80.2933 224.068 80.3733 224.135 80.44C224.201 80.5067 224.308 80.54 224.455 80.54ZM230.134 76.34C229.828 76.34 229.648 76.2067 229.594 75.94V75.86C229.594 75.74 229.661 75.5933 229.794 75.42C229.954 75.18 230.034 75.06 230.034 75.06C230.088 74.98 230.208 74.7867 230.394 74.48C230.581 74.1733 230.701 73.9333 230.754 73.76C230.754 73.7067 230.761 73.66 230.774 73.62C230.548 73.66 230.314 73.58 230.074 73.38C229.901 73.22 229.814 73.0067 229.814 72.74C229.814 72.5133 229.881 72.2867 230.014 72.06C230.148 71.8333 230.328 71.64 230.554 71.48C230.808 71.32 231.054 71.24 231.294 71.24C231.454 71.24 231.661 71.2867 231.914 71.38C232.141 71.5267 232.321 71.7333 232.454 72C232.601 72.2667 232.648 72.4867 232.594 72.66C232.554 73.0067 232.441 73.4133 232.254 73.88L232.114 74.3C231.994 74.74 231.594 75.3467 230.914 76.12C230.914 76.1467 230.894 76.1733 230.854 76.2C230.814 76.2133 230.754 76.2333 230.674 76.26C230.608 76.2733 230.528 76.2933 230.434 76.32L230.134 76.34ZM232.418 85.3C232.098 85.3 231.765 85.2333 231.418 85.1C231.085 84.9667 230.798 84.8067 230.558 84.62C230.331 84.42 230.218 84.24 230.218 84.08C230.218 83.92 230.291 83.82 230.438 83.78L230.538 83.7C230.565 83.6867 230.618 83.68 230.698 83.68C230.751 83.6667 230.818 83.6733 230.898 83.7C230.978 83.7133 231.045 83.72 231.098 83.72C231.191 83.7467 231.331 83.7733 231.518 83.8L232.038 83.86C232.305 83.86 232.551 83.8333 232.778 83.78C233.018 83.7267 233.138 83.6667 233.138 83.6C233.138 83.56 233.085 83.4933 232.978 83.4C232.871 83.3067 232.758 83.26 232.638 83.26C232.638 83.2067 232.431 83.0267 232.018 82.72C231.791 82.5467 231.571 82.3733 231.358 82.2C231.158 82.0267 231.058 81.9 231.058 81.82L231.078 81.78V81.68C230.985 81.68 230.898 81.5533 230.818 81.3C230.738 81.0467 230.698 80.8 230.698 80.56C230.698 80.1067 230.898 79.6067 231.298 79.06C231.698 78.5133 232.191 78.02 232.778 77.58C233.378 77.14 233.945 76.84 234.478 76.68C234.678 76.5867 234.971 76.54 235.358 76.54C235.611 76.54 235.785 76.5667 235.878 76.62L236.038 76.58C236.198 76.58 236.405 76.7133 236.658 76.98C236.911 77.2467 237.071 77.46 237.138 77.62C237.138 78.06 237.125 78.4133 237.098 78.68C237.071 78.9467 237.005 79.08 236.898 79.08C236.885 79.08 236.865 79.0867 236.838 79.1C236.811 79.1133 236.798 79.1467 236.798 79.2C236.798 79.3867 236.631 79.5933 236.298 79.82C235.978 80.0467 235.685 80.16 235.418 80.16L235.338 80.14C235.258 80.1267 235.138 80.0467 234.978 79.9C234.831 79.7533 234.758 79.6067 234.758 79.46C234.758 79.42 234.838 79.3133 234.998 79.14C235.158 78.9667 235.291 78.8 235.398 78.64C235.518 78.4667 235.578 78.2867 235.578 78.1C235.578 78.0333 235.551 77.9933 235.498 77.98C235.458 77.9533 235.371 77.94 235.238 77.94C234.505 78.2733 233.978 78.5867 233.658 78.88C233.618 78.96 233.578 79.02 233.538 79.06C233.511 79.1 233.471 79.12 233.418 79.12C233.418 79.1067 233.411 79.1 233.398 79.1C233.371 79.1 233.285 79.18 233.138 79.34C232.991 79.4867 232.851 79.66 232.718 79.86C232.598 80.06 232.525 80.2467 232.498 80.42L232.458 80.48V80.58C232.445 80.6067 232.438 80.66 232.438 80.74C232.438 80.86 232.491 80.9867 232.598 81.12C232.705 81.24 232.918 81.4133 233.238 81.64C233.838 82.0933 234.245 82.4333 234.458 82.66C234.685 82.8733 234.825 83.0667 234.878 83.24C234.998 83.48 235.058 83.6933 235.058 83.88C235.058 84.3333 234.818 84.6867 234.338 84.94C233.871 85.18 233.231 85.3 232.418 85.3ZM243.234 86.74C243.061 86.7533 242.887 86.6467 242.714 86.42C242.541 86.1933 242.394 85.8867 242.274 85.5C242.167 85.1267 242.114 84.7267 242.114 84.3C242.101 84.1933 242.094 84.0333 242.094 83.82C242.094 82.8733 242.367 81.4467 242.914 79.54C243.101 78.8733 243.454 77.94 243.974 76.74C244.494 75.54 244.807 74.8933 244.914 74.8H244.954C245.007 74.8 245.034 74.74 245.034 74.62C245.034 74.5933 245.087 74.4933 245.194 74.32C245.301 74.1333 245.401 73.9467 245.494 73.76C245.774 73.36 246.141 72.9467 246.594 72.52C247.061 72.08 247.447 71.8 247.754 71.68C247.954 71.6 248.154 71.56 248.354 71.56C248.607 71.56 248.887 71.6467 249.194 71.82C249.501 71.98 249.761 72.1867 249.974 72.44C250.187 72.6933 250.294 72.94 250.294 73.18C250.294 73.3933 250.247 73.6 250.154 73.8C250.087 74.0667 249.961 74.3867 249.774 74.76C249.587 75.1333 249.427 75.4133 249.294 75.6C249.001 75.8267 248.727 75.94 248.474 75.94C248.354 75.94 248.261 75.9133 248.194 75.86C248.141 75.8067 248.134 75.7533 248.174 75.7C248.187 75.6067 248.207 75.4933 248.234 75.36C248.274 75.2133 248.301 75.0733 248.314 74.94C248.314 74.9133 248.341 74.8333 248.394 74.7C248.461 74.5533 248.494 74.42 248.494 74.3C248.614 73.8333 248.674 73.5267 248.674 73.38C248.674 73.22 248.607 73.14 248.474 73.14C248.354 73.1267 248.227 73.1667 248.094 73.26C247.974 73.34 247.914 73.4267 247.914 73.52V73.6C247.847 73.5867 247.621 73.8267 247.234 74.32C246.861 74.8133 246.554 75.26 246.314 75.66C246.101 76.1133 245.807 76.8067 245.434 77.74L245.274 78.22L245.594 78.26C245.701 78.2733 246.027 78.2267 246.574 78.12C246.654 78.1067 246.767 78.1 246.914 78.1C247.194 78.1 247.401 78.16 247.534 78.28C247.681 78.4 247.801 78.5733 247.894 78.8C247.947 78.9333 247.974 79.0267 247.974 79.08C247.974 79.28 247.807 79.4267 247.474 79.52C247.141 79.6 246.541 79.66 245.674 79.7C245.554 79.6867 245.401 79.68 245.214 79.68C245.001 79.68 244.867 79.7067 244.814 79.76C244.734 79.8 244.607 80.0867 244.434 80.62C244.274 81.1533 244.154 81.6533 244.074 82.12C243.927 82.6933 243.854 83.3667 243.854 84.14C243.854 84.8333 243.901 85.3533 243.994 85.7C244.007 85.7533 244.014 85.82 244.014 85.9C244.014 86.2733 243.754 86.5533 243.234 86.74ZM248.73 84.58C248.69 84.5 248.577 84.3933 248.39 84.26C248.203 84.1267 248.11 84.0467 248.11 84.02C248.11 83.9667 248.077 83.8933 248.01 83.8C247.957 83.6933 247.903 83.6 247.85 83.52C247.743 83.4133 247.817 83.0667 248.07 82.48C248.323 81.8933 248.663 81.2 249.09 80.4C249.17 80.32 249.27 80.18 249.39 79.98C249.523 79.78 249.61 79.6667 249.65 79.64C249.65 79.5867 249.67 79.54 249.71 79.5C249.75 79.4467 249.797 79.42 249.85 79.42L250.01 79.1C250.063 78.98 250.323 78.6933 250.79 78.24C251.257 77.7867 251.623 77.48 251.89 77.32C252.143 77.1467 252.417 77.06 252.71 77.06C253.03 77.06 253.303 77.1533 253.53 77.34L254.07 77.8C254.47 78.1333 254.697 78.3267 254.75 78.38L255.49 79.04L255.15 80.04C255.03 80.4 254.97 80.74 254.97 81.06C254.97 81.5667 255.11 82.04 255.39 82.48C255.457 82.6267 255.543 82.74 255.65 82.82C255.77 82.9 255.923 82.9533 256.11 82.98C256.403 83.0333 256.55 83.18 256.55 83.42C256.55 83.7133 256.497 83.9333 256.39 84.08C256.283 84.2267 256.157 84.32 256.01 84.36C255.797 84.3867 255.65 84.4 255.57 84.4C255.183 84.4 254.83 84.3 254.51 84.1C254.19 83.9 253.91 83.56 253.67 83.08C253.617 83 253.543 82.8533 253.45 82.64C253.37 82.4267 253.323 82.28 253.31 82.2C253.217 82.3333 253.063 82.5067 252.85 82.72C251.477 84.1067 250.363 84.8 249.51 84.8C249.217 84.8 248.957 84.7267 248.73 84.58ZM249.83 82.92C250.043 82.9467 250.457 82.7067 251.07 82.2C251.137 82.1467 251.21 82.0867 251.29 82.02C251.37 81.94 251.457 81.86 251.55 81.78C251.923 81.4733 252.21 81.22 252.41 81.02C252.623 80.8067 252.837 80.5533 253.05 80.26L253.49 79.54C253.357 79.2467 253.237 79.0533 253.13 78.96C253.023 78.8533 252.917 78.8 252.81 78.8C252.543 78.8 252.21 79.04 251.81 79.52C251.41 79.9867 250.93 80.7 250.37 81.66C250.223 81.9 250.103 82.1533 250.01 82.42C249.917 82.6733 249.857 82.84 249.83 82.92ZM260.136 84.82C259.976 84.8867 259.809 84.92 259.636 84.92C259.356 84.92 259.016 84.8467 258.616 84.7C258.562 84.7 258.382 84.5733 258.076 84.32C257.782 84.0533 257.602 83.8467 257.536 83.7C257.376 83.4733 257.296 83.1733 257.296 82.8C257.296 82.16 257.522 81.2867 257.976 80.18C258.122 79.8733 258.362 79.4733 258.696 78.98C259.042 78.4733 259.276 78.1867 259.396 78.12C259.436 78.1067 259.529 78.0733 259.676 78.02C259.822 77.9533 259.989 77.8733 260.176 77.78C260.269 77.74 260.462 77.6933 260.756 77.64C261.049 77.5733 261.256 77.54 261.376 77.54C261.629 77.54 261.909 77.6333 262.216 77.82C262.522 77.9933 262.762 78.2 262.936 78.44C263.122 78.68 263.189 78.8867 263.136 79.06C263.122 79.1133 263.049 79.2733 262.916 79.54C262.782 79.7933 262.676 79.96 262.596 80.04C262.542 80.1067 262.442 80.14 262.296 80.14C262.122 80.14 261.962 80.0933 261.816 80C261.669 79.9067 261.589 79.7733 261.576 79.6C261.549 79.52 261.462 79.4333 261.316 79.34C261.182 79.2467 261.089 79.1867 261.036 79.16C260.942 79.16 260.816 79.2533 260.656 79.44C260.496 79.6133 260.302 79.8667 260.076 80.2C259.822 80.4533 259.642 80.7267 259.536 81.02C259.442 81.3 259.376 81.56 259.336 81.8C259.309 82.0267 259.282 82.18 259.256 82.26C259.229 82.34 259.216 82.42 259.216 82.5C259.216 82.6333 259.242 82.7667 259.296 82.9C259.349 83.02 259.402 83.0867 259.456 83.1C259.696 83.1133 260.069 83.06 260.576 82.94C261.096 82.8067 261.556 82.66 261.956 82.5C262.142 82.38 262.342 82.32 262.556 82.32C262.649 82.32 262.742 82.3333 262.836 82.36C262.929 82.3733 262.996 82.3867 263.036 82.4C263.169 82.4533 263.236 82.5733 263.236 82.76C263.236 82.9333 263.176 83.1133 263.056 83.3C262.936 83.4867 262.769 83.64 262.556 83.76C262.329 83.88 262.136 84 261.976 84.12C261.816 84.24 261.736 84.3333 261.736 84.4C261.709 84.4 261.656 84.42 261.576 84.46C261.496 84.4867 261.442 84.4933 261.416 84.48C261.269 84.4933 261.042 84.54 260.736 84.62C260.429 84.7 260.229 84.7667 260.136 84.82ZM266.833 85.36C265.313 85.36 264.553 84.4933 264.553 82.76C264.553 82.1333 264.706 81.4267 265.013 80.64C265.333 79.84 265.726 79.1267 266.193 78.5C266.673 77.86 267.146 77.4333 267.613 77.22C267.866 77.0867 268.159 77.02 268.493 77.02C269.093 77.02 269.613 77.1533 270.053 77.42C270.506 77.6733 270.733 78.16 270.733 78.88C270.733 79.2933 270.593 79.7467 270.313 80.24C270.033 80.7333 269.679 81.1533 269.253 81.5C268.839 81.8333 268.433 82 268.033 82C267.433 82 266.926 81.8067 266.513 81.42C266.286 81.8733 266.173 82.3067 266.173 82.72C266.173 83.0533 266.213 83.3133 266.293 83.5C266.373 83.6733 266.559 83.76 266.853 83.76C267.133 83.76 267.359 83.72 267.533 83.64C267.706 83.56 267.866 83.4667 268.013 83.36C268.159 83.2533 268.273 83.1733 268.353 83.12L268.433 83.08H268.413C268.653 82.9467 268.826 82.8467 268.933 82.78C269.053 82.7 269.153 82.6467 269.233 82.62C269.433 82.62 269.619 82.68 269.793 82.8C269.966 82.92 270.053 83.0667 270.053 83.24C270.053 83.3733 269.933 83.5933 269.693 83.9C269.453 84.1933 269.206 84.4 268.953 84.52L268.713 84.64H268.733C268.613 84.8 268.493 84.88 268.373 84.88H268.213C268.159 84.9867 267.979 85.0933 267.673 85.2C267.379 85.3067 267.099 85.36 266.833 85.36ZM267.873 80.54C268.246 80.54 268.553 80.38 268.793 80.06C269.046 79.74 269.173 79.42 269.173 79.1C269.173 78.9533 269.133 78.82 269.053 78.7C268.986 78.58 268.893 78.52 268.773 78.52C268.546 78.52 268.293 78.6267 268.013 78.84C267.733 79.0533 267.486 79.3333 267.273 79.68L267.013 80.1C267.066 80.0733 267.106 80.06 267.133 80.06C267.239 80.06 267.319 80.1067 267.373 80.2C267.426 80.2933 267.486 80.3733 267.553 80.44C267.619 80.5067 267.726 80.54 267.873 80.54ZM278.996 79.76C278.716 79.8533 278.509 79.9 278.376 79.9C278.163 79.9 277.929 79.8133 277.676 79.64C277.476 79.44 277.376 79.24 277.376 79.04C277.376 78.72 277.629 78.38 278.136 78.02C278.403 77.8467 278.609 77.76 278.756 77.76C278.863 77.76 279.043 77.8133 279.296 77.92C279.696 78.1733 279.896 78.4467 279.896 78.74C279.896 79.1133 279.596 79.4533 278.996 79.76ZM277.596 83.96C277.316 84.0533 277.109 84.1 276.976 84.1C276.763 84.1 276.529 84.0133 276.276 83.84C276.076 83.64 275.976 83.44 275.976 83.24C275.976 82.92 276.229 82.58 276.736 82.22C277.003 82.0467 277.209 81.96 277.356 81.96C277.463 81.96 277.643 82.0133 277.896 82.12C278.296 82.3733 278.496 82.6467 278.496 82.94C278.496 83.3133 278.196 83.6533 277.596 83.96ZM279.741 87.7C279.487 87.6333 279.241 87.4867 279.001 87.26C278.761 87.0467 278.634 86.84 278.621 86.64C278.621 86.6133 278.621 86.5333 278.621 86.4C278.634 86.2667 278.667 86.16 278.721 86.08C278.734 86.0933 278.761 86.1067 278.801 86.12C278.854 86.1467 278.927 86.16 279.021 86.16C279.127 86.16 279.221 86.1467 279.301 86.12C279.554 86.1333 279.747 86.1067 279.881 86.04C280.027 85.9867 280.201 85.84 280.401 85.6L280.761 85.14C281.067 84.78 281.247 84.5267 281.301 84.38C281.487 84.2467 281.627 84.1267 281.721 84.02C281.814 83.9 281.914 83.7533 282.021 83.58C282.021 83.2867 282.141 82.9467 282.381 82.56C282.554 82.1867 282.681 81.9333 282.761 81.8C282.921 81.48 283.001 81.3 283.001 81.26C283.014 81.2333 283.034 81.1733 283.061 81.08C283.101 80.9867 283.114 80.8867 283.101 80.78C283.181 80.74 283.247 80.6533 283.301 80.52C283.367 80.3733 283.394 80.2267 283.381 80.08C283.394 80.0267 283.454 79.8667 283.561 79.6C283.681 79.32 283.747 79.0467 283.761 78.78C283.974 78.1 284.114 77.5 284.181 76.98C284.247 76.46 284.314 75.6333 284.381 74.5L284.421 73.44C284.434 73.2667 284.441 73.06 284.441 72.82C284.441 72.62 284.427 72.4667 284.401 72.36C284.374 72.24 284.321 72.1133 284.241 71.98C284.107 71.5533 283.994 71.34 283.901 71.34C283.874 71.34 283.847 71.3067 283.821 71.24C283.794 71.16 283.781 71.06 283.781 70.94C283.781 70.82 283.801 70.7 283.841 70.58C283.827 70.5267 283.921 70.4667 284.121 70.4C284.334 70.3333 284.501 70.3067 284.621 70.32C284.701 70.32 284.794 70.36 284.901 70.44C285.021 70.5067 285.107 70.5667 285.161 70.62C285.254 70.5267 285.461 70.92 285.781 71.8C285.901 72.0667 285.974 72.2667 286.001 72.4C286.041 72.5333 286.061 72.72 286.061 72.96L286.021 73.8L285.981 74.46C285.967 75.1267 285.907 75.88 285.801 76.72C285.694 77.56 285.567 78.3333 285.421 79.04C285.247 79.7333 284.941 80.64 284.501 81.76C284.074 82.8667 283.761 83.58 283.561 83.9C283.614 83.8867 283.387 84.2467 282.881 84.98L282.101 86.18C281.781 86.62 281.374 87 280.881 87.32C280.387 87.6533 280.007 87.78 279.741 87.7Z" fill="#0F0928"/>
</svg>
